%TF.GenerationSoftware,KiCad,Pcbnew,7.0.8*%
%TF.CreationDate,2023-12-13T19:44:07-05:00*%
%TF.ProjectId,pcb,7063622e-6b69-4636-9164-5f7063625858,rev?*%
%TF.SameCoordinates,Original*%
%TF.FileFunction,Copper,L2,Bot*%
%TF.FilePolarity,Positive*%
%FSLAX46Y46*%
G04 Gerber Fmt 4.6, Leading zero omitted, Abs format (unit mm)*
G04 Created by KiCad (PCBNEW 7.0.8) date 2023-12-13 19:44:07*
%MOMM*%
%LPD*%
G01*
G04 APERTURE LIST*
%TA.AperFunction,ComponentPad*%
%ADD10O,3.620000X1.810000*%
%TD*%
%TA.AperFunction,ComponentPad*%
%ADD11C,1.600000*%
%TD*%
%TA.AperFunction,ComponentPad*%
%ADD12C,2.200000*%
%TD*%
%TA.AperFunction,ComponentPad*%
%ADD13O,1.508000X3.016000*%
%TD*%
%TA.AperFunction,ComponentPad*%
%ADD14O,3.016000X1.508000*%
%TD*%
%TA.AperFunction,ComponentPad*%
%ADD15O,3.016000X2.000000*%
%TD*%
%TA.AperFunction,ComponentPad*%
%ADD16R,1.800000X1.800000*%
%TD*%
%TA.AperFunction,ComponentPad*%
%ADD17C,1.650000*%
%TD*%
%TA.AperFunction,ComponentPad*%
%ADD18O,3.000000X6.000000*%
%TD*%
%TA.AperFunction,ComponentPad*%
%ADD19O,4.000000X2.000000*%
%TD*%
%TA.AperFunction,ComponentPad*%
%ADD20O,2.000000X4.000000*%
%TD*%
%TA.AperFunction,ViaPad*%
%ADD21C,1.600000*%
%TD*%
%TA.AperFunction,Conductor*%
%ADD22C,0.800000*%
%TD*%
G04 APERTURE END LIST*
D10*
%TO.P,S1,1*%
%TO.N,PWR_3V3*%
X117380000Y-86870000D03*
%TO.P,S1,2*%
%TO.N,BTN_IN*%
X117380000Y-82170000D03*
%TO.P,S1,3*%
%TO.N,unconnected-(S1-Pad3)*%
X117380000Y-77470000D03*
%TD*%
D11*
%TO.P,M1,40,VBUS*%
%TO.N,unconnected-(M1-VBUS-Pad40)*%
X119690000Y-192405000D03*
%TO.P,M1,39,VSYS*%
%TO.N,VSYS*%
X117150000Y-192405000D03*
%TO.P,M1,38,GND*%
%TO.N,PWR_GND*%
X114610000Y-192405000D03*
%TO.P,M1,37,3V3_EN*%
%TO.N,unconnected-(M1-3V3_EN-Pad37)*%
X112070000Y-192405000D03*
%TO.P,M1,36,3V3_OUT*%
%TO.N,PWR_3V3*%
X109530000Y-192405000D03*
%TO.P,M1,35,ADC_VREF*%
%TO.N,unconnected-(M1-ADC_VREF-Pad35)*%
X106990000Y-192405000D03*
%TO.P,M1,34,GP28*%
%TO.N,IN*%
X104450000Y-192405000D03*
%TO.P,M1,33,GND*%
%TO.N,PWR_GND*%
X101910000Y-192405000D03*
%TO.P,M1,32,GP27*%
%TO.N,ENC1_A*%
X99370000Y-192405000D03*
%TO.P,M1,31,GP26*%
%TO.N,ENC1_B*%
X96830000Y-192405000D03*
%TO.P,M1,30,RUN*%
%TO.N,unconnected-(M1-RUN-Pad30)*%
X94290000Y-192405000D03*
%TO.P,M1,29,GP22*%
%TO.N,unconnected-(M1-GP22-Pad29)*%
X91750000Y-192405000D03*
%TO.P,M1,28,GND*%
%TO.N,PWR_GND*%
X89210000Y-192405000D03*
%TO.P,M1,27,GP21*%
%TO.N,BTN_IN*%
X86670000Y-192405000D03*
%TO.P,M1,26,GP20*%
%TO.N,unconnected-(M1-GP20-Pad26)*%
X84130000Y-192405000D03*
%TO.P,M1,25,GP19*%
%TO.N,unconnected-(M1-GP19-Pad25)*%
X81590000Y-192405000D03*
%TO.P,M1,24,GP18*%
%TO.N,BTN_PLAY*%
X79050000Y-192405000D03*
%TO.P,M1,23,GND*%
%TO.N,PWR_GND*%
X76510000Y-192405000D03*
%TO.P,M1,22,GP17*%
%TO.N,ENC2_B*%
X73970000Y-192405000D03*
%TO.P,M1,21,GP16*%
%TO.N,ENC2_A*%
X71430000Y-192405000D03*
%TO.P,M1,20,GP15*%
%TO.N,unconnected-(M1-GP15-Pad20)*%
X71430000Y-174625000D03*
%TO.P,M1,19,GP14*%
%TO.N,OUT_MIDI*%
X73970000Y-174625000D03*
%TO.P,M1,18,GND*%
%TO.N,PWR_GND*%
X76510000Y-174625000D03*
%TO.P,M1,17,GP13*%
%TO.N,OUT_C1*%
X79050000Y-174625000D03*
%TO.P,M1,16,GP12*%
%TO.N,OUT_C2*%
X81590000Y-174625000D03*
%TO.P,M1,15,GP11*%
%TO.N,OUT_C3*%
X84130000Y-174625000D03*
%TO.P,M1,14,GP10*%
%TO.N,OUT_C4*%
X86670000Y-174625000D03*
%TO.P,M1,13,GND*%
%TO.N,PWR_GND*%
X89210000Y-174625000D03*
%TO.P,M1,12,GP9*%
%TO.N,OUT_C5*%
X91750000Y-174625000D03*
%TO.P,M1,11,GP8*%
%TO.N,OUT_C6*%
X94290000Y-174625000D03*
%TO.P,M1,10,GP7*%
%TO.N,IN_SWTCH*%
X96830000Y-174625000D03*
%TO.P,M1,9,GP6*%
%TO.N,ENC2_BTN*%
X99370000Y-174625000D03*
%TO.P,M1,8,GND*%
%TO.N,PWR_GND*%
X101910000Y-174625000D03*
%TO.P,M1,7,GP5*%
%TO.N,BTN_C1*%
X104450000Y-174625000D03*
%TO.P,M1,6,GP4*%
%TO.N,BTN_C2*%
X106990000Y-174625000D03*
%TO.P,M1,5,GP3*%
%TO.N,BTN_C3*%
X109530000Y-174625000D03*
%TO.P,M1,4,GP2*%
%TO.N,BTN_C4*%
X112070000Y-174625000D03*
%TO.P,M1,3,GND*%
%TO.N,PWR_GND*%
X114610000Y-174625000D03*
%TO.P,M1,2,GP1*%
%TO.N,BTN_C5*%
X117150000Y-174625000D03*
%TO.P,M1,1,GP0*%
%TO.N,BTN_C6*%
X119690000Y-174625000D03*
%TD*%
D12*
%TO.P,SW3,1,1*%
%TO.N,BTN_C1*%
X15360000Y-46990000D03*
%TO.P,SW3,2,2*%
%TO.N,PWR_3V3*%
X9010000Y-49530000D03*
%TD*%
D13*
%TO.P,J6,1*%
%TO.N,PWR_GND*%
X74120000Y-23680000D03*
D14*
%TO.P,J6,2*%
%TO.N,unconnected-(J6-Pad2)*%
X70570000Y-20480000D03*
D13*
%TO.P,J6,4*%
%TO.N,unconnected-(J6-Pad4)*%
X67020000Y-23680000D03*
D15*
%TO.P,J6,5*%
%TO.N,OUT_C4*%
X70570000Y-28580000D03*
%TD*%
D13*
%TO.P,J1,1*%
%TO.N,PWR_GND*%
X119860000Y-23680000D03*
D14*
%TO.P,J1,2*%
%TO.N,unconnected-(J1-Pad2)*%
X116310000Y-20480000D03*
D13*
%TO.P,J1,4*%
%TO.N,IN_SWTCH*%
X112760000Y-23680000D03*
D15*
%TO.P,J1,5*%
%TO.N,IN*%
X116310000Y-28580000D03*
%TD*%
D16*
%TO.P,MT2,1*%
%TO.N,PWR_3V3*%
X61000000Y-109245000D03*
D12*
%TO.P,MT2,2*%
%TO.N,ENC2_BTN*%
X66000000Y-109245000D03*
D17*
%TO.P,MT2,A,A*%
%TO.N,ENC2_A*%
X61000000Y-123745000D03*
%TO.P,MT2,B,B*%
%TO.N,ENC2_B*%
X66000000Y-123745000D03*
%TO.P,MT2,COM,COM*%
%TO.N,PWR_GND*%
X63500000Y-123745000D03*
D18*
%TO.P,MT2,S1,SHIELD*%
X57800000Y-116245000D03*
%TO.P,MT2,S2,SHIELD*%
X69200000Y-116245000D03*
%TD*%
D12*
%TO.P,SW1,1,1*%
%TO.N,BTN_PLAY*%
X52106000Y-178554000D03*
%TO.P,SW1,2,2*%
%TO.N,PWR_3V3*%
X45756000Y-181094000D03*
%TD*%
%TO.P,SW5,1,1*%
%TO.N,BTN_C3*%
X55760000Y-46990000D03*
%TO.P,SW5,2,2*%
%TO.N,PWR_3V3*%
X49410000Y-49530000D03*
%TD*%
D19*
%TO.P,J9,1*%
%TO.N,VSYS*%
X117677500Y-155465000D03*
D20*
%TO.P,J9,2*%
%TO.N,PWR_GND*%
X121477500Y-151965000D03*
D19*
%TO.P,J9,3*%
%TO.N,unconnected-(J9-Pad3)*%
X117677500Y-148165000D03*
%TD*%
D13*
%TO.P,J5,1*%
%TO.N,PWR_GND*%
X59620000Y-23680000D03*
D14*
%TO.P,J5,2*%
%TO.N,unconnected-(J5-Pad2)*%
X56070000Y-20480000D03*
D13*
%TO.P,J5,4*%
%TO.N,unconnected-(J5-Pad4)*%
X52520000Y-23680000D03*
D15*
%TO.P,J5,5*%
%TO.N,OUT_C3*%
X56070000Y-28580000D03*
%TD*%
D13*
%TO.P,J8,1*%
%TO.N,PWR_GND*%
X103120000Y-23680000D03*
D14*
%TO.P,J8,2*%
%TO.N,unconnected-(J8-Pad2)*%
X99570000Y-20480000D03*
D13*
%TO.P,J8,4*%
%TO.N,unconnected-(J8-Pad4)*%
X96020000Y-23680000D03*
D15*
%TO.P,J8,5*%
%TO.N,OUT_C6*%
X99570000Y-28580000D03*
%TD*%
D13*
%TO.P,J4,1*%
%TO.N,PWR_GND*%
X45120000Y-23680000D03*
D14*
%TO.P,J4,2*%
%TO.N,unconnected-(J4-Pad2)*%
X41570000Y-20480000D03*
D13*
%TO.P,J4,4*%
%TO.N,unconnected-(J4-Pad4)*%
X38020000Y-23680000D03*
D15*
%TO.P,J4,5*%
%TO.N,OUT_C2*%
X41570000Y-28580000D03*
%TD*%
D12*
%TO.P,SW6,1,1*%
%TO.N,BTN_C4*%
X75960000Y-46990000D03*
%TO.P,SW6,2,2*%
%TO.N,PWR_3V3*%
X69610000Y-49530000D03*
%TD*%
%TO.P,SW7,1,1*%
%TO.N,BTN_C5*%
X96160000Y-46990000D03*
%TO.P,SW7,2,2*%
%TO.N,PWR_3V3*%
X89810000Y-49530000D03*
%TD*%
D13*
%TO.P,J3,1*%
%TO.N,PWR_GND*%
X30620000Y-23680000D03*
D14*
%TO.P,J3,2*%
%TO.N,unconnected-(J3-Pad2)*%
X27070000Y-20480000D03*
D13*
%TO.P,J3,4*%
%TO.N,unconnected-(J3-Pad4)*%
X23520000Y-23680000D03*
D15*
%TO.P,J3,5*%
%TO.N,OUT_C1*%
X27070000Y-28580000D03*
%TD*%
D12*
%TO.P,SW8,1,1*%
%TO.N,BTN_C6*%
X116360000Y-46990000D03*
%TO.P,SW8,2,2*%
%TO.N,PWR_3V3*%
X110010000Y-49530000D03*
%TD*%
D16*
%TO.P,MT1,1*%
%TO.N,unconnected-(MT1-Pad1)*%
X17066000Y-176634000D03*
D12*
%TO.P,MT1,2*%
%TO.N,unconnected-(MT1-Pad2)*%
X22066000Y-176634000D03*
D17*
%TO.P,MT1,A,A*%
%TO.N,ENC1_A*%
X17066000Y-191134000D03*
%TO.P,MT1,B,B*%
%TO.N,ENC1_B*%
X22066000Y-191134000D03*
%TO.P,MT1,COM,COM*%
%TO.N,PWR_GND*%
X19566000Y-191134000D03*
D18*
%TO.P,MT1,S1,SHIELD*%
X13866000Y-183634000D03*
%TO.P,MT1,S2,SHIELD*%
X25266000Y-183634000D03*
%TD*%
D13*
%TO.P,J2,1*%
%TO.N,PWR_GND*%
X13880000Y-23680000D03*
D14*
%TO.P,J2,2*%
%TO.N,unconnected-(J2-Pad2)*%
X10330000Y-20480000D03*
D13*
%TO.P,J2,4*%
%TO.N,unconnected-(J2-Pad4)*%
X6780000Y-23680000D03*
D15*
%TO.P,J2,5*%
%TO.N,OUT_MIDI*%
X10330000Y-28580000D03*
%TD*%
D13*
%TO.P,J7,1*%
%TO.N,PWR_GND*%
X88620000Y-23680000D03*
D14*
%TO.P,J7,2*%
%TO.N,unconnected-(J7-Pad2)*%
X85070000Y-20480000D03*
D13*
%TO.P,J7,4*%
%TO.N,unconnected-(J7-Pad4)*%
X81520000Y-23680000D03*
D15*
%TO.P,J7,5*%
%TO.N,OUT_C5*%
X85070000Y-28580000D03*
%TD*%
D12*
%TO.P,SW4,1,1*%
%TO.N,BTN_C2*%
X35560000Y-46990000D03*
%TO.P,SW4,2,2*%
%TO.N,PWR_3V3*%
X29210000Y-49530000D03*
%TD*%
D21*
%TO.N,PWR_GND*%
X114645000Y-197375000D03*
%TO.N,VSYS*%
X117185000Y-197375000D03*
%TD*%
D22*
%TO.N,IN_SWTCH*%
X96830000Y-174625000D02*
X96830000Y-108510000D01*
X111470000Y-25290000D02*
X112481176Y-25290000D01*
X96830000Y-108510000D02*
X105120000Y-100220000D01*
X105120000Y-100220000D02*
X105120000Y-31640000D01*
X105120000Y-31640000D02*
X111470000Y-25290000D01*
X112481176Y-25290000D02*
X112634661Y-25331126D01*
X112634661Y-25331126D02*
X112738547Y-25334516D01*
%TO.N,PWR_GND*%
X54058054Y-112503054D02*
X57800000Y-116245000D01*
X28285000Y-199280000D02*
X27712000Y-199280000D01*
X57495000Y-15130000D02*
X60670000Y-18305000D01*
X31460000Y-22115000D02*
X31777500Y-22432500D01*
X39715000Y-198083000D02*
X25266000Y-183634000D01*
X89520000Y-23095406D02*
X89520000Y-24020000D01*
X65458054Y-112503054D02*
X69200000Y-116245000D01*
X115605000Y-151965000D02*
X121477500Y-151965000D01*
X103120000Y-23680000D02*
X103220000Y-23580000D01*
X103220000Y-23580000D02*
X103220000Y-23089827D01*
X113375000Y-159275000D02*
X113375000Y-154195000D01*
X71465000Y-15130000D02*
X75275000Y-18940000D01*
X14950000Y-199280000D02*
X4155000Y-188485000D01*
X4155000Y-17670000D02*
X6695000Y-15130000D01*
X28285000Y-199280000D02*
X14950000Y-199280000D01*
X75275000Y-18940000D02*
X75275000Y-24020000D01*
X100675000Y-15130000D02*
X104025055Y-18480055D01*
X117185000Y-15130000D02*
X120995000Y-18940000D01*
X42890000Y-15130000D02*
X46065000Y-18305000D01*
X60670000Y-18305000D02*
X60670000Y-23385000D01*
X74640000Y-199280000D02*
X76510000Y-197410000D01*
X89880000Y-18940000D02*
X89880000Y-22740000D01*
X28285000Y-15130000D02*
X31460000Y-18305000D01*
X120760000Y-22985000D02*
X120760000Y-23680000D01*
X89880000Y-24020000D02*
X89880000Y-22740000D01*
X13866000Y-185434000D02*
X13866000Y-183634000D01*
X89520000Y-24020000D02*
X89880000Y-24020000D01*
X86070000Y-15130000D02*
X89880000Y-18940000D01*
X19566000Y-191134000D02*
X13866000Y-185434000D01*
X63500000Y-123745000D02*
X57800000Y-118045000D01*
X120995000Y-22750000D02*
X120760000Y-22985000D01*
X4155000Y-188485000D02*
X4155000Y-123715000D01*
X89880000Y-22740000D02*
X89875406Y-22740000D01*
X104025055Y-18480055D02*
X104025055Y-22925055D01*
X114645000Y-192440000D02*
X114610000Y-192405000D01*
X31777500Y-22432500D02*
X31777500Y-23702500D01*
X14950000Y-18940000D02*
X14950000Y-24020000D01*
X120995000Y-18940000D02*
X120995000Y-22750000D01*
X53685000Y-112503054D02*
X65458054Y-112503054D01*
X104020000Y-22930110D02*
X104020000Y-23680000D01*
X28285000Y-199280000D02*
X39715000Y-199280000D01*
X39715000Y-199280000D02*
X74640000Y-199280000D01*
X27712000Y-199280000D02*
X19566000Y-191134000D01*
X42890000Y-15130000D02*
X57495000Y-15130000D01*
X4155000Y-123715000D02*
X4155000Y-17670000D01*
X46065000Y-18305000D02*
X46065000Y-24020000D01*
X53685000Y-112503054D02*
X54058054Y-112503054D01*
X114645000Y-197375000D02*
X114645000Y-192440000D01*
X121630000Y-190390000D02*
X125440000Y-186580000D01*
X125440000Y-186580000D02*
X125440000Y-171340000D01*
X114610000Y-192405000D02*
X116625000Y-190390000D01*
X11140000Y-15130000D02*
X28285000Y-15130000D01*
X11140000Y-15130000D02*
X14950000Y-18940000D01*
X57495000Y-15130000D02*
X71465000Y-15130000D01*
X103220000Y-23089827D02*
X103215485Y-22951477D01*
X15366946Y-112503054D02*
X53685000Y-112503054D01*
X31460000Y-18305000D02*
X31460000Y-22115000D01*
X28285000Y-15130000D02*
X42890000Y-15130000D01*
X125440000Y-171340000D02*
X113375000Y-159275000D01*
X113375000Y-154195000D02*
X115605000Y-151965000D01*
X39715000Y-199280000D02*
X39715000Y-198083000D01*
X89875406Y-22740000D02*
X89520000Y-23095406D01*
X71465000Y-15130000D02*
X86070000Y-15130000D01*
X6695000Y-15130000D02*
X11140000Y-15130000D01*
X116625000Y-190390000D02*
X121630000Y-190390000D01*
X86070000Y-15130000D02*
X100675000Y-15130000D01*
X100675000Y-15130000D02*
X117185000Y-15130000D01*
X76510000Y-197410000D02*
X76510000Y-192405000D01*
X57800000Y-118045000D02*
X57800000Y-116245000D01*
X4155000Y-123715000D02*
X15366946Y-112503054D01*
X104025055Y-22925055D02*
X104020000Y-22930110D01*
%TO.N,OUT_MIDI*%
X73970000Y-174625000D02*
X73970000Y-110261320D01*
X11140000Y-29735000D02*
X9870000Y-29735000D01*
X21300000Y-39895000D02*
X11140000Y-29735000D01*
X21300000Y-57591320D02*
X21300000Y-39895000D01*
X73970000Y-110261320D02*
X21300000Y-57591320D01*
%TO.N,OUT_C1*%
X79050000Y-174625000D02*
X79050000Y-111615000D01*
X25110000Y-31640000D02*
X27015000Y-29735000D01*
X79050000Y-111615000D02*
X25110000Y-57675000D01*
X25110000Y-57675000D02*
X25110000Y-31640000D01*
X27015000Y-29735000D02*
X26380000Y-29735000D01*
%TO.N,OUT_C2*%
X81625000Y-109745000D02*
X41620000Y-69740000D01*
X81590000Y-174625000D02*
X81625000Y-174590000D01*
X41620000Y-29735000D02*
X40985000Y-29735000D01*
X41620000Y-69740000D02*
X41620000Y-29735000D01*
X81625000Y-174590000D02*
X81625000Y-109745000D01*
%TO.N,OUT_C3*%
X61305000Y-34180000D02*
X56860000Y-29735000D01*
X84130000Y-174625000D02*
X84130000Y-108440000D01*
X84130000Y-108440000D02*
X61305000Y-85615000D01*
X56860000Y-29735000D02*
X56225000Y-29735000D01*
X61305000Y-85615000D02*
X61305000Y-34180000D01*
%TO.N,OUT_C4*%
X69815000Y-29480000D02*
X70570000Y-29480000D01*
X86670000Y-106535000D02*
X65115000Y-84980000D01*
X86670000Y-174625000D02*
X86670000Y-106535000D01*
X65115000Y-84980000D02*
X65115000Y-34180000D01*
X65115000Y-34180000D02*
X69815000Y-29480000D01*
%TO.N,OUT_C5*%
X91750000Y-174625000D02*
X91750000Y-106535000D01*
X84800000Y-29480000D02*
X85070000Y-29480000D01*
X84800000Y-99585000D02*
X84800000Y-29480000D01*
X91750000Y-106535000D02*
X84800000Y-99585000D01*
%TO.N,OUT_C6*%
X100420000Y-29480000D02*
X99570000Y-29480000D01*
X94290000Y-107240000D02*
X101945000Y-99585000D01*
X94290000Y-174625000D02*
X94290000Y-107240000D01*
X101945000Y-99585000D02*
X101945000Y-31005000D01*
X101945000Y-31005000D02*
X100420000Y-29480000D01*
%TO.N,VSYS*%
X117185000Y-197375000D02*
X117185000Y-192440000D01*
X117185000Y-192440000D02*
X117150000Y-192405000D01*
%TO.N,ENC2_A*%
X61000000Y-181975000D02*
X61000000Y-123745000D01*
X71430000Y-192405000D02*
X61000000Y-181975000D01*
%TO.N,ENC2_B*%
X66385000Y-184675000D02*
X66000000Y-184290000D01*
X73970000Y-192405000D02*
X66385000Y-184820000D01*
X66385000Y-184820000D02*
X66385000Y-184675000D01*
X66000000Y-184290000D02*
X66000000Y-123745000D01*
%TO.N,BTN_IN*%
X105755000Y-145940000D02*
X123535000Y-128160000D01*
X86670000Y-192405000D02*
X90590000Y-188485000D01*
X123535000Y-86250000D02*
X119455000Y-82170000D01*
X90590000Y-188485000D02*
X120995000Y-188485000D01*
X119455000Y-82170000D02*
X117380000Y-82170000D01*
X123535000Y-185945000D02*
X123535000Y-171975000D01*
X105755000Y-154195000D02*
X105755000Y-145940000D01*
X120995000Y-188485000D02*
X123535000Y-185945000D01*
X123535000Y-171975000D02*
X105755000Y-154195000D01*
X123535000Y-128160000D02*
X123535000Y-86250000D01*
%TD*%
M02*
