%TF.GenerationSoftware,KiCad,Pcbnew,7.0.8*%
%TF.CreationDate,2023-12-13T19:44:07-05:00*%
%TF.ProjectId,pcb,7063622e-6b69-4636-9164-5f7063625858,rev?*%
%TF.SameCoordinates,Original*%
%TF.FileFunction,Copper,L1,Top*%
%TF.FilePolarity,Positive*%
%FSLAX46Y46*%
G04 Gerber Fmt 4.6, Leading zero omitted, Abs format (unit mm)*
G04 Created by KiCad (PCBNEW 7.0.8) date 2023-12-13 19:44:07*
%MOMM*%
%LPD*%
G01*
G04 APERTURE LIST*
%TA.AperFunction,ComponentPad*%
%ADD10O,3.620000X1.810000*%
%TD*%
%TA.AperFunction,SMDPad,CuDef*%
%ADD11R,1.600000X3.810000*%
%TD*%
%TA.AperFunction,ComponentPad*%
%ADD12C,1.600000*%
%TD*%
%TA.AperFunction,ComponentPad*%
%ADD13C,2.200000*%
%TD*%
%TA.AperFunction,ComponentPad*%
%ADD14O,1.508000X3.016000*%
%TD*%
%TA.AperFunction,ComponentPad*%
%ADD15O,3.016000X1.508000*%
%TD*%
%TA.AperFunction,ComponentPad*%
%ADD16O,3.016000X2.000000*%
%TD*%
%TA.AperFunction,ComponentPad*%
%ADD17R,1.800000X1.800000*%
%TD*%
%TA.AperFunction,ComponentPad*%
%ADD18C,1.650000*%
%TD*%
%TA.AperFunction,ComponentPad*%
%ADD19O,3.000000X6.000000*%
%TD*%
%TA.AperFunction,ComponentPad*%
%ADD20O,4.000000X2.000000*%
%TD*%
%TA.AperFunction,ComponentPad*%
%ADD21O,2.000000X4.000000*%
%TD*%
%TA.AperFunction,ViaPad*%
%ADD22C,1.600000*%
%TD*%
%TA.AperFunction,Conductor*%
%ADD23C,0.800000*%
%TD*%
G04 APERTURE END LIST*
D10*
%TO.P,S1,1*%
%TO.N,PWR_3V3*%
X117380000Y-86870000D03*
%TO.P,S1,2*%
%TO.N,BTN_IN*%
X117380000Y-82170000D03*
%TO.P,S1,3*%
%TO.N,unconnected-(S1-Pad3)*%
X117380000Y-77470000D03*
%TD*%
D11*
%TO.P,M1,40,VBUS*%
%TO.N,unconnected-(M1-VBUS-Pad40)*%
X119690000Y-194310000D03*
D12*
X119690000Y-192405000D03*
D11*
%TO.P,M1,39,VSYS*%
%TO.N,VSYS*%
X117150000Y-194310000D03*
D12*
X117150000Y-192405000D03*
D11*
%TO.P,M1,38,GND*%
%TO.N,PWR_GND*%
X114610000Y-194310000D03*
D12*
X114610000Y-192405000D03*
D11*
%TO.P,M1,37,3V3_EN*%
%TO.N,unconnected-(M1-3V3_EN-Pad37)*%
X112070000Y-194310000D03*
D12*
X112070000Y-192405000D03*
D11*
%TO.P,M1,36,3V3_OUT*%
%TO.N,PWR_3V3*%
X109530000Y-194310000D03*
D12*
X109530000Y-192405000D03*
D11*
%TO.P,M1,35,ADC_VREF*%
%TO.N,unconnected-(M1-ADC_VREF-Pad35)*%
X106990000Y-194310000D03*
D12*
X106990000Y-192405000D03*
D11*
%TO.P,M1,34,GP28*%
%TO.N,IN*%
X104450000Y-194310000D03*
D12*
X104450000Y-192405000D03*
D11*
%TO.P,M1,33,GND*%
%TO.N,PWR_GND*%
X101910000Y-194310000D03*
D12*
X101910000Y-192405000D03*
D11*
%TO.P,M1,32,GP27*%
%TO.N,ENC1_A*%
X99370000Y-194310000D03*
D12*
X99370000Y-192405000D03*
D11*
%TO.P,M1,31,GP26*%
%TO.N,ENC1_B*%
X96857864Y-194301443D03*
D12*
X96830000Y-192405000D03*
D11*
%TO.P,M1,30,RUN*%
%TO.N,unconnected-(M1-RUN-Pad30)*%
X94290000Y-194310000D03*
D12*
X94290000Y-192405000D03*
D11*
%TO.P,M1,29,GP22*%
%TO.N,unconnected-(M1-GP22-Pad29)*%
X91750000Y-194310000D03*
D12*
X91750000Y-192405000D03*
D11*
%TO.P,M1,28,GND*%
%TO.N,PWR_GND*%
X89210000Y-194310000D03*
D12*
X89210000Y-192405000D03*
D11*
%TO.P,M1,27,GP21*%
%TO.N,BTN_IN*%
X86670000Y-194310000D03*
D12*
X86670000Y-192405000D03*
D11*
%TO.P,M1,26,GP20*%
%TO.N,unconnected-(M1-GP20-Pad26)*%
X84130000Y-194310000D03*
D12*
X84130000Y-192405000D03*
D11*
%TO.P,M1,25,GP19*%
%TO.N,unconnected-(M1-GP19-Pad25)*%
X81590000Y-194310000D03*
D12*
X81590000Y-192405000D03*
D11*
%TO.P,M1,24,GP18*%
%TO.N,BTN_PLAY*%
X79050000Y-194310000D03*
D12*
X79050000Y-192405000D03*
D11*
%TO.P,M1,23,GND*%
%TO.N,PWR_GND*%
X76510000Y-194310000D03*
D12*
X76510000Y-192405000D03*
D11*
%TO.P,M1,22,GP17*%
%TO.N,ENC2_B*%
X73970000Y-194310000D03*
D12*
X73970000Y-192405000D03*
D11*
%TO.P,M1,21,GP16*%
%TO.N,ENC2_A*%
X71430000Y-194310000D03*
D12*
X71430000Y-192405000D03*
%TO.P,M1,20,GP15*%
%TO.N,unconnected-(M1-GP15-Pad20)*%
X71430000Y-174625000D03*
D11*
X71430000Y-172720000D03*
D12*
%TO.P,M1,19,GP14*%
%TO.N,OUT_MIDI*%
X73970000Y-174625000D03*
D11*
X73970000Y-172720000D03*
D12*
%TO.P,M1,18,GND*%
%TO.N,PWR_GND*%
X76510000Y-174625000D03*
D11*
X76510000Y-172720000D03*
D12*
%TO.P,M1,17,GP13*%
%TO.N,OUT_C1*%
X79050000Y-174625000D03*
D11*
X79050000Y-172720000D03*
D12*
%TO.P,M1,16,GP12*%
%TO.N,OUT_C2*%
X81590000Y-174625000D03*
D11*
X81590000Y-172720000D03*
D12*
%TO.P,M1,15,GP11*%
%TO.N,OUT_C3*%
X84130000Y-174625000D03*
D11*
X84130000Y-172720000D03*
D12*
%TO.P,M1,14,GP10*%
%TO.N,OUT_C4*%
X86670000Y-174625000D03*
D11*
X86670000Y-172720000D03*
D12*
%TO.P,M1,13,GND*%
%TO.N,PWR_GND*%
X89210000Y-174625000D03*
D11*
X89210000Y-172720000D03*
D12*
%TO.P,M1,12,GP9*%
%TO.N,OUT_C5*%
X91750000Y-174625000D03*
D11*
X91750000Y-172720000D03*
D12*
%TO.P,M1,11,GP8*%
%TO.N,OUT_C6*%
X94290000Y-174625000D03*
D11*
X94290000Y-172720000D03*
D12*
%TO.P,M1,10,GP7*%
%TO.N,IN_SWTCH*%
X96830000Y-174625000D03*
D11*
X96830000Y-172720000D03*
D12*
%TO.P,M1,9,GP6*%
%TO.N,ENC2_BTN*%
X99370000Y-174625000D03*
D11*
X99379556Y-172720000D03*
D12*
%TO.P,M1,8,GND*%
%TO.N,PWR_GND*%
X101910000Y-174625000D03*
D11*
X101910000Y-172720000D03*
D12*
%TO.P,M1,7,GP5*%
%TO.N,BTN_C1*%
X104450000Y-174625000D03*
D11*
X104450000Y-172720000D03*
D12*
%TO.P,M1,6,GP4*%
%TO.N,BTN_C2*%
X106990000Y-174625000D03*
D11*
X106990000Y-172720000D03*
D12*
%TO.P,M1,5,GP3*%
%TO.N,BTN_C3*%
X109530000Y-174625000D03*
D11*
X109530000Y-172720000D03*
D12*
%TO.P,M1,4,GP2*%
%TO.N,BTN_C4*%
X112070000Y-174625000D03*
D11*
X112070000Y-172720000D03*
D12*
%TO.P,M1,3,GND*%
%TO.N,PWR_GND*%
X114610000Y-174625000D03*
D11*
X114610000Y-172720000D03*
D12*
%TO.P,M1,2,GP1*%
%TO.N,BTN_C5*%
X117150000Y-174625000D03*
D11*
X117150000Y-172720000D03*
D12*
%TO.P,M1,1,GP0*%
%TO.N,BTN_C6*%
X119690000Y-174625000D03*
D11*
X119690000Y-172720000D03*
%TD*%
D13*
%TO.P,SW3,1,1*%
%TO.N,BTN_C1*%
X15360000Y-46990000D03*
%TO.P,SW3,2,2*%
%TO.N,PWR_3V3*%
X9010000Y-49530000D03*
%TD*%
D14*
%TO.P,J6,1*%
%TO.N,PWR_GND*%
X74120000Y-23680000D03*
D15*
%TO.P,J6,2*%
%TO.N,unconnected-(J6-Pad2)*%
X70570000Y-20480000D03*
D14*
%TO.P,J6,4*%
%TO.N,unconnected-(J6-Pad4)*%
X67020000Y-23680000D03*
D16*
%TO.P,J6,5*%
%TO.N,OUT_C4*%
X70570000Y-28580000D03*
%TD*%
D14*
%TO.P,J1,1*%
%TO.N,PWR_GND*%
X119860000Y-23680000D03*
D15*
%TO.P,J1,2*%
%TO.N,unconnected-(J1-Pad2)*%
X116310000Y-20480000D03*
D14*
%TO.P,J1,4*%
%TO.N,IN_SWTCH*%
X112760000Y-23680000D03*
D16*
%TO.P,J1,5*%
%TO.N,IN*%
X116310000Y-28580000D03*
%TD*%
D17*
%TO.P,MT2,1*%
%TO.N,PWR_3V3*%
X61000000Y-109245000D03*
D13*
%TO.P,MT2,2*%
%TO.N,ENC2_BTN*%
X66000000Y-109245000D03*
D18*
%TO.P,MT2,A,A*%
%TO.N,ENC2_A*%
X61000000Y-123745000D03*
%TO.P,MT2,B,B*%
%TO.N,ENC2_B*%
X66000000Y-123745000D03*
%TO.P,MT2,COM,COM*%
%TO.N,PWR_GND*%
X63500000Y-123745000D03*
D19*
%TO.P,MT2,S1,SHIELD*%
X57800000Y-116245000D03*
%TO.P,MT2,S2,SHIELD*%
X69200000Y-116245000D03*
%TD*%
D13*
%TO.P,SW1,1,1*%
%TO.N,BTN_PLAY*%
X52106000Y-178554000D03*
%TO.P,SW1,2,2*%
%TO.N,PWR_3V3*%
X45756000Y-181094000D03*
%TD*%
%TO.P,SW5,1,1*%
%TO.N,BTN_C3*%
X55760000Y-46990000D03*
%TO.P,SW5,2,2*%
%TO.N,PWR_3V3*%
X49410000Y-49530000D03*
%TD*%
D20*
%TO.P,J9,1*%
%TO.N,VSYS*%
X117677500Y-155465000D03*
D21*
%TO.P,J9,2*%
%TO.N,PWR_GND*%
X121477500Y-151965000D03*
D20*
%TO.P,J9,3*%
%TO.N,unconnected-(J9-Pad3)*%
X117677500Y-148165000D03*
%TD*%
D14*
%TO.P,J5,1*%
%TO.N,PWR_GND*%
X59620000Y-23680000D03*
D15*
%TO.P,J5,2*%
%TO.N,unconnected-(J5-Pad2)*%
X56070000Y-20480000D03*
D14*
%TO.P,J5,4*%
%TO.N,unconnected-(J5-Pad4)*%
X52520000Y-23680000D03*
D16*
%TO.P,J5,5*%
%TO.N,OUT_C3*%
X56070000Y-28580000D03*
%TD*%
D14*
%TO.P,J8,1*%
%TO.N,PWR_GND*%
X103120000Y-23680000D03*
D15*
%TO.P,J8,2*%
%TO.N,unconnected-(J8-Pad2)*%
X99570000Y-20480000D03*
D14*
%TO.P,J8,4*%
%TO.N,unconnected-(J8-Pad4)*%
X96020000Y-23680000D03*
D16*
%TO.P,J8,5*%
%TO.N,OUT_C6*%
X99570000Y-28580000D03*
%TD*%
D14*
%TO.P,J4,1*%
%TO.N,PWR_GND*%
X45120000Y-23680000D03*
D15*
%TO.P,J4,2*%
%TO.N,unconnected-(J4-Pad2)*%
X41570000Y-20480000D03*
D14*
%TO.P,J4,4*%
%TO.N,unconnected-(J4-Pad4)*%
X38020000Y-23680000D03*
D16*
%TO.P,J4,5*%
%TO.N,OUT_C2*%
X41570000Y-28580000D03*
%TD*%
D13*
%TO.P,SW6,1,1*%
%TO.N,BTN_C4*%
X75960000Y-46990000D03*
%TO.P,SW6,2,2*%
%TO.N,PWR_3V3*%
X69610000Y-49530000D03*
%TD*%
%TO.P,SW7,1,1*%
%TO.N,BTN_C5*%
X96160000Y-46990000D03*
%TO.P,SW7,2,2*%
%TO.N,PWR_3V3*%
X89810000Y-49530000D03*
%TD*%
D14*
%TO.P,J3,1*%
%TO.N,PWR_GND*%
X30620000Y-23680000D03*
D15*
%TO.P,J3,2*%
%TO.N,unconnected-(J3-Pad2)*%
X27070000Y-20480000D03*
D14*
%TO.P,J3,4*%
%TO.N,unconnected-(J3-Pad4)*%
X23520000Y-23680000D03*
D16*
%TO.P,J3,5*%
%TO.N,OUT_C1*%
X27070000Y-28580000D03*
%TD*%
D13*
%TO.P,SW8,1,1*%
%TO.N,BTN_C6*%
X116360000Y-46990000D03*
%TO.P,SW8,2,2*%
%TO.N,PWR_3V3*%
X110010000Y-49530000D03*
%TD*%
D17*
%TO.P,MT1,1*%
%TO.N,unconnected-(MT1-Pad1)*%
X17066000Y-176634000D03*
D13*
%TO.P,MT1,2*%
%TO.N,unconnected-(MT1-Pad2)*%
X22066000Y-176634000D03*
D18*
%TO.P,MT1,A,A*%
%TO.N,ENC1_A*%
X17066000Y-191134000D03*
%TO.P,MT1,B,B*%
%TO.N,ENC1_B*%
X22066000Y-191134000D03*
%TO.P,MT1,COM,COM*%
%TO.N,PWR_GND*%
X19566000Y-191134000D03*
D19*
%TO.P,MT1,S1,SHIELD*%
X13866000Y-183634000D03*
%TO.P,MT1,S2,SHIELD*%
X25266000Y-183634000D03*
%TD*%
D14*
%TO.P,J2,1*%
%TO.N,PWR_GND*%
X13880000Y-23680000D03*
D15*
%TO.P,J2,2*%
%TO.N,unconnected-(J2-Pad2)*%
X10330000Y-20480000D03*
D14*
%TO.P,J2,4*%
%TO.N,unconnected-(J2-Pad4)*%
X6780000Y-23680000D03*
D16*
%TO.P,J2,5*%
%TO.N,OUT_MIDI*%
X10330000Y-28580000D03*
%TD*%
D14*
%TO.P,J7,1*%
%TO.N,PWR_GND*%
X88620000Y-23680000D03*
D15*
%TO.P,J7,2*%
%TO.N,unconnected-(J7-Pad2)*%
X85070000Y-20480000D03*
D14*
%TO.P,J7,4*%
%TO.N,unconnected-(J7-Pad4)*%
X81520000Y-23680000D03*
D16*
%TO.P,J7,5*%
%TO.N,OUT_C5*%
X85070000Y-28580000D03*
%TD*%
D13*
%TO.P,SW4,1,1*%
%TO.N,BTN_C2*%
X35560000Y-46990000D03*
%TO.P,SW4,2,2*%
%TO.N,PWR_3V3*%
X29210000Y-49530000D03*
%TD*%
D22*
%TO.N,PWR_GND*%
X114645000Y-197375000D03*
%TO.N,VSYS*%
X117185000Y-197375000D03*
%TD*%
D23*
%TO.N,PWR_GND*%
X114610000Y-197340000D02*
X114645000Y-197375000D01*
X114610000Y-194310000D02*
X114610000Y-197340000D01*
%TO.N,IN*%
X124170000Y-128795000D02*
X124170000Y-37355000D01*
X104450000Y-194310000D02*
X104450000Y-192405000D01*
X120995000Y-189120000D02*
X124170000Y-185945000D01*
X116550000Y-29480000D02*
X116310000Y-29480000D01*
X106390000Y-146575000D02*
X124170000Y-128795000D01*
X124170000Y-171340000D02*
X106390000Y-153560000D01*
X116550000Y-29735000D02*
X116550000Y-29480000D01*
X124170000Y-37355000D02*
X116550000Y-29735000D01*
X107735000Y-189120000D02*
X120995000Y-189120000D01*
X104450000Y-192405000D02*
X107735000Y-189120000D01*
X124170000Y-185945000D02*
X124170000Y-171340000D01*
X106390000Y-153560000D02*
X106390000Y-146575000D01*
%TO.N,VSYS*%
X125440000Y-163227500D02*
X117677500Y-155465000D01*
X118455000Y-197375000D02*
X117185000Y-196105000D01*
X117150000Y-194310000D02*
X117150000Y-196105000D01*
X118455000Y-197375000D02*
X120995000Y-197375000D01*
X120995000Y-197375000D02*
X125440000Y-192930000D01*
X117150000Y-196105000D02*
X117150000Y-197340000D01*
X117185000Y-196105000D02*
X117150000Y-196105000D01*
X117185000Y-197375000D02*
X118455000Y-197375000D01*
X117150000Y-197340000D02*
X117185000Y-197375000D01*
X125440000Y-192930000D02*
X125440000Y-163227500D01*
%TO.N,ENC1_A*%
X96305000Y-199280000D02*
X25212000Y-199280000D01*
X99370000Y-196215000D02*
X96305000Y-199280000D01*
X25212000Y-199280000D02*
X17066000Y-191134000D01*
X99370000Y-194310000D02*
X99370000Y-196215000D01*
%TO.N,ENC1_B*%
X95689307Y-197375000D02*
X28307000Y-197375000D01*
X96857864Y-194301443D02*
X96857864Y-196206443D01*
X28307000Y-197375000D02*
X22066000Y-191134000D01*
X96857864Y-196206443D02*
X95689307Y-197375000D01*
%TO.N,PWR_3V3*%
X1615000Y-114190000D02*
X1615000Y-55825000D01*
X23205000Y-43705000D02*
X43525000Y-43705000D01*
X84165000Y-43705000D02*
X84165000Y-43885000D01*
X121630000Y-46245000D02*
X121630000Y-82620000D01*
X1615000Y-55825000D02*
X7357500Y-50082500D01*
X7357500Y-50082500D02*
X7910000Y-49530000D01*
X7357500Y-50082500D02*
X13735000Y-43705000D01*
X7910000Y-49530000D02*
X9010000Y-49530000D01*
X104560000Y-201185000D02*
X14950000Y-201185000D01*
X9235000Y-170070000D02*
X34732000Y-170070000D01*
X15450000Y-109245000D02*
X1615000Y-123080000D01*
X63845000Y-43765000D02*
X69610000Y-49530000D01*
X14950000Y-201185000D02*
X1615000Y-187850000D01*
X104485000Y-43705000D02*
X119090000Y-43705000D01*
X63845000Y-43705000D02*
X63845000Y-43765000D01*
X84165000Y-43705000D02*
X104485000Y-43705000D01*
X23385000Y-43705000D02*
X29210000Y-49530000D01*
X43585000Y-43705000D02*
X49410000Y-49530000D01*
X1615000Y-177690000D02*
X1615000Y-123080000D01*
X1615000Y-187850000D02*
X1615000Y-177690000D01*
X43525000Y-43705000D02*
X63845000Y-43705000D01*
X104485000Y-44005000D02*
X110010000Y-49530000D01*
X43525000Y-43705000D02*
X43585000Y-43705000D01*
X121630000Y-82620000D02*
X117380000Y-86870000D01*
X23205000Y-43705000D02*
X23385000Y-43705000D01*
X61000000Y-109245000D02*
X15450000Y-109245000D01*
X84165000Y-43885000D02*
X89810000Y-49530000D01*
X119090000Y-43705000D02*
X121630000Y-46245000D01*
X1615000Y-123080000D02*
X1615000Y-114190000D01*
X1615000Y-177690000D02*
X9235000Y-170070000D01*
X63845000Y-43705000D02*
X84165000Y-43705000D01*
X104485000Y-43705000D02*
X104485000Y-44005000D01*
X109530000Y-194310000D02*
X109530000Y-196215000D01*
X13735000Y-43705000D02*
X23205000Y-43705000D01*
X34732000Y-170070000D02*
X45756000Y-181094000D01*
X109530000Y-196215000D02*
X104560000Y-201185000D01*
%TO.N,ENC2_BTN*%
X99405000Y-168165000D02*
X75275000Y-144035000D01*
X99379556Y-172720000D02*
X99379556Y-168190444D01*
X75275000Y-114190000D02*
X70330000Y-109245000D01*
X99379556Y-168190444D02*
X99405000Y-168165000D01*
X70330000Y-109245000D02*
X66000000Y-109245000D01*
X75275000Y-144035000D02*
X75275000Y-114190000D01*
%TO.N,BTN_PLAY*%
X53279000Y-178554000D02*
X52106000Y-178554000D01*
X76400000Y-189755000D02*
X64480000Y-189755000D01*
X79050000Y-192405000D02*
X76400000Y-189755000D01*
X64480000Y-189755000D02*
X53279000Y-178554000D01*
X79050000Y-194310000D02*
X79050000Y-192405000D01*
%TO.N,BTN_C1*%
X104450000Y-170035000D02*
X77180000Y-142765000D01*
X77180000Y-108810000D02*
X15360000Y-46990000D01*
X104450000Y-172720000D02*
X104450000Y-170035000D01*
X77180000Y-142765000D02*
X77180000Y-108810000D01*
%TO.N,BTN_C2*%
X106990000Y-169400000D02*
X79085000Y-141495000D01*
X35905000Y-64025000D02*
X35905000Y-47335000D01*
X106990000Y-172720000D02*
X106990000Y-169400000D01*
X79085000Y-107205000D02*
X35905000Y-64025000D01*
X79085000Y-141495000D02*
X79085000Y-107205000D01*
X35905000Y-47335000D02*
X35560000Y-46990000D01*
%TO.N,BTN_C3*%
X55870000Y-80180000D02*
X55870000Y-47100000D01*
X109530000Y-169400000D02*
X80990000Y-140860000D01*
X80990000Y-140860000D02*
X80990000Y-105300000D01*
X55870000Y-47100000D02*
X55760000Y-46990000D01*
X80990000Y-105300000D02*
X55870000Y-80180000D01*
X109530000Y-172720000D02*
X109530000Y-169400000D01*
%TO.N,BTN_C4*%
X112070000Y-168765000D02*
X82895000Y-139590000D01*
X82895000Y-139590000D02*
X82895000Y-53925000D01*
X112070000Y-172720000D02*
X112070000Y-168765000D01*
X82895000Y-53925000D02*
X75960000Y-46990000D01*
%TO.N,BTN_C5*%
X97200000Y-48030000D02*
X97200000Y-151464578D01*
X116325978Y-170480978D02*
X117150000Y-171305000D01*
X96160000Y-46990000D02*
X97200000Y-48030000D01*
X117150000Y-171305000D02*
X117150000Y-172720000D01*
X97200000Y-151464578D02*
X116216400Y-170480978D01*
X116216400Y-170480978D02*
X116325978Y-170480978D01*
%TO.N,BTN_C6*%
X117135327Y-58994673D02*
X103215000Y-72915000D01*
X103215000Y-154939578D02*
X118756400Y-170480978D01*
X117135327Y-47765327D02*
X117135327Y-58994673D01*
X119690000Y-171305000D02*
X119690000Y-172720000D01*
X103215000Y-72915000D02*
X103215000Y-154939578D01*
X118865978Y-170480978D02*
X119690000Y-171305000D01*
X118756400Y-170480978D02*
X118865978Y-170480978D01*
X116360000Y-46990000D02*
X117135327Y-47765327D01*
%TD*%
M02*
