M48
; DRILL file {KiCad 7.0.8} date 2023 December 13, Wednesday 19:44:00
; FORMAT={-:-/ absolute / metric / decimal}
; #@! TF.CreationDate,2023-12-13T19:44:00-05:00
; #@! TF.GenerationSoftware,Kicad,Pcbnew,7.0.8
; #@! TF.FileFunction,Plated,1,2,PTH
FMAT,2
METRIC
; #@! TA.AperFunction,Plated,PTH,ComponentDrill
T1C0.910
; #@! TA.AperFunction,Plated,PTH,ViaDrill
T2C1.000
; #@! TA.AperFunction,Plated,PTH,ComponentDrill
T3C1.000
; #@! TA.AperFunction,Plated,PTH,ComponentDrill
T4C1.100
; #@! TA.AperFunction,Plated,PTH,ComponentDrill
T5C1.500
; #@! TA.AperFunction,Plated,PTH,ComponentDrill
T6C1.550
; #@! TA.AperFunction,Plated,PTH,ComponentDrill
T7C2.000
%
G90
G05
T2
X114.645Y-197.375
X117.185Y-197.375
T3
X71.43Y-192.405
X73.97Y-174.625
X73.97Y-192.405
X76.51Y-174.625
X76.51Y-192.405
X79.05Y-174.625
X79.05Y-192.405
X81.59Y-174.625
X81.59Y-192.405
X84.13Y-174.625
X84.13Y-192.405
X86.67Y-174.625
X86.67Y-192.405
X89.21Y-174.625
X89.21Y-192.405
X91.75Y-174.625
X91.75Y-192.405
X94.29Y-174.625
X94.29Y-192.405
X96.83Y-174.625
X96.83Y-192.405
X99.37Y-174.625
X99.37Y-192.405
X101.91Y-174.625
X101.91Y-192.405
X104.45Y-174.625
X104.45Y-192.405
X106.99Y-174.625
X106.99Y-192.405
X109.53Y-174.625
X109.53Y-192.405
X112.07Y-174.625
X112.07Y-192.405
X114.61Y-174.625
X114.61Y-192.405
X117.15Y-174.625
X117.15Y-192.405
X119.69Y-174.625
X119.69Y-192.405
T4
X17.066Y-191.134
X19.566Y-191.134
X22.066Y-191.134
X61.0Y-123.745
X63.5Y-123.745
X66.0Y-123.745
X71.43Y-174.625
T5
X9.01Y-49.53
X15.36Y-46.99
X29.21Y-49.53
X35.56Y-46.99
X45.756Y-181.094
X49.41Y-49.53
X52.106Y-178.554
X55.76Y-46.99
X69.61Y-49.53
X75.96Y-46.99
X89.81Y-49.53
X96.16Y-46.99
X110.01Y-49.53
X116.36Y-46.99
T6
X17.066Y-176.634
X22.066Y-176.634
X61.0Y-109.245
X66.0Y-109.245
T1
G00X116.365Y-77.47
M15
G01X118.395Y-77.47
M16
G05
G00X116.365Y-82.17
M15
G01X118.395Y-82.17
M16
G05
G00X116.365Y-86.87
M15
G01X118.395Y-86.87
M16
G05
T3
G00X6.78Y-23.08
M15
G01X6.78Y-24.28
M16
G05
G00X9.73Y-20.48
M15
G01X10.93Y-20.48
M16
G05
G00X13.88Y-23.08
M15
G01X13.88Y-24.28
M16
G05
G00X23.52Y-23.08
M15
G01X23.52Y-24.28
M16
G05
G00X26.47Y-20.48
M15
G01X27.67Y-20.48
M16
G05
G00X30.62Y-23.08
M15
G01X30.62Y-24.28
M16
G05
G00X38.02Y-23.08
M15
G01X38.02Y-24.28
M16
G05
G00X40.97Y-20.48
M15
G01X42.17Y-20.48
M16
G05
G00X45.12Y-23.08
M15
G01X45.12Y-24.28
M16
G05
G00X52.52Y-23.08
M15
G01X52.52Y-24.28
M16
G05
G00X55.47Y-20.48
M15
G01X56.67Y-20.48
M16
G05
G00X59.62Y-23.08
M15
G01X59.62Y-24.28
M16
G05
G00X67.02Y-23.08
M15
G01X67.02Y-24.28
M16
G05
G00X69.97Y-20.48
M15
G01X71.17Y-20.48
M16
G05
G00X74.12Y-23.08
M15
G01X74.12Y-24.28
M16
G05
G00X81.52Y-23.08
M15
G01X81.52Y-24.28
M16
G05
G00X84.47Y-20.48
M15
G01X85.67Y-20.48
M16
G05
G00X88.62Y-23.08
M15
G01X88.62Y-24.28
M16
G05
G00X96.02Y-23.08
M15
G01X96.02Y-24.28
M16
G05
G00X98.97Y-20.48
M15
G01X100.17Y-20.48
M16
G05
G00X103.12Y-23.08
M15
G01X103.12Y-24.28
M16
G05
G00X112.76Y-23.08
M15
G01X112.76Y-24.28
M16
G05
G00X115.71Y-20.48
M15
G01X116.91Y-20.48
M16
G05
G00X117.078Y-148.165
M15
G01X118.277Y-148.165
M16
G05
G00X117.078Y-155.465
M15
G01X118.277Y-155.465
M16
G05
G00X119.86Y-23.08
M15
G01X119.86Y-24.28
M16
G05
G00X121.477Y-152.565
M15
G01X121.477Y-151.365
M16
G05
T6
G00X10.005Y-28.58
M15
G01X10.655Y-28.58
M16
G05
G00X26.745Y-28.58
M15
G01X27.395Y-28.58
M16
G05
G00X41.245Y-28.58
M15
G01X41.895Y-28.58
M16
G05
G00X55.745Y-28.58
M15
G01X56.395Y-28.58
M16
G05
G00X70.245Y-28.58
M15
G01X70.895Y-28.58
M16
G05
G00X84.745Y-28.58
M15
G01X85.395Y-28.58
M16
G05
G00X99.245Y-28.58
M15
G01X99.895Y-28.58
M16
G05
G00X115.985Y-28.58
M15
G01X116.635Y-28.58
M16
G05
T7
G00X13.866Y-183.234
M15
G01X13.866Y-184.034
M16
G05
G00X25.266Y-183.234
M15
G01X25.266Y-184.034
M16
G05
G00X57.8Y-115.845
M15
G01X57.8Y-116.645
M16
G05
G00X69.2Y-115.845
M15
G01X69.2Y-116.645
M16
G05
T0
M30
