0
SECTION
2
HEADER
9
$INSUNITS
70
4
9
$ACADVER
1
AC1014
9
$HANDSEED
5
FFFF
0
ENDSEC
0
SECTION
2
TABLES
0
TABLE
2
VPORT
5
8
100
AcDbSymbolTable
0
ENDTAB
0
TABLE
2
LTYPE
5
5
100
AcDbSymbolTable
0
LTYPE
5
14
100
AcDbSymbolTableRecord
100
AcDbLinetypeTableRecord
2
BYBLOCK
70
0
0
LTYPE
5
15
100
AcDbSymbolTableRecord
100
AcDbLinetypeTableRecord
2
BYLAYER
70
0
0
ENDTAB
0
TABLE
2
LAYER
5
2
100
AcDbSymbolTable
70
2
0
LAYER
5
50
100
AcDbSymbolTableRecord
100
AcDbLayerTableRecord
2
0
70
0
6
CONTINUOUS
0
ENDTAB
0
TABLE
2
STYLE
5
3
100
AcDbSymbolTable
70
1
0
STYLE
5
11
100
AcDbSymbolTableRecord
100
AcDbTextStyleTableRecord
2
STANDARD
70
0
0
ENDTAB
0
TABLE
2
VIEW
5
6
100
AcDbSymbolTable
70
0
0
ENDTAB
0
TABLE
2
UCS
5
7
100
AcDbSymbolTable
70
0
0
ENDTAB
0
TABLE
2
APPID
5
9
100
AcDbSymbolTable
70
2
0
APPID
5
12
100
AcDbSymbolTableRecord
100
AcDbRegAppTableRecord
2
ACAD
70
0
0
ENDTAB
0
TABLE
2
DIMSTYLE
5
A
100
AcDbSymbolTable
70
1
0
ENDTAB
0
TABLE
2
BLOCK_RECORD
5
1
100
AcDbSymbolTable
70
1
0
BLOCK_RECORD
5
1F
100
AcDbSymbolTableRecord
100
AcDbBlockTableRecord
2
*MODEL_SPACE
0
BLOCK_RECORD
5
1B
100
AcDbSymbolTableRecord
100
AcDbBlockTableRecord
2
*PAPER_SPACE
0
ENDTAB
0
ENDSEC
0
SECTION
2
BLOCKS
0
BLOCK
5
20
100
AcDbEntity
100
AcDbBlockBegin
2
*MODEL_SPACE
0
ENDBLK
5
21
100
AcDbEntity
100
AcDbBlockEnd
0
BLOCK
5
1C
100
AcDbEntity
100
AcDbBlockBegin
2
*PAPER_SPACE
0
ENDBLK
5
1D
100
AcDbEntity
100
AcDbBlockEnd
0
ENDSEC
0
SECTION
2
ENTITIES
0
LWPOLYLINE
5
100
100
AcDbEntity
8
0
100
AcDbPolyline
90
4
70
1
43
0.0
10
-26.216929363049346
20
115.37644337751078
42
0.99999999999999989
10
-29.264929363049347
20
115.37644337751078
10
-29.264929363049347
20
110.2964433775108
42
0.99999999999999989
10
-26.216929363049346
20
110.2964433775108
0
LWPOLYLINE
5
101
100
AcDbEntity
8
0
100
AcDbPolyline
90
4
70
1
43
0.0
10
-31.216929363049392
20
-149.7964433775108
10
-31.216929363049392
20
-154.87644337751078
42
-0.99999999999999989
10
-34.264929363049397
20
-154.87644337751078
10
-34.264929363049397
20
-149.7964433775108
42
-0.99999999999999989
0
LWPOLYLINE
5
102
100
AcDbEntity
8
0
100
AcDbPolyline
90
4
70
1
43
0.0
10
-39.264929363049319
20
149.79644337751083
42
0.99999999999999989
10
-36.216929363049317
20
149.79644337751083
10
-36.21692936304931
20
154.87644337751081
42
0.99999999999999989
10
-39.264929363049312
20
154.87644337751081
0
LWPOLYLINE
5
103
100
AcDbEntity
8
0
100
AcDbPolyline
90
4
70
1
43
0.0
10
-44.264929363049347
20
110.29644337751083
42
0.99999999999999989
10
-41.216929363049346
20
110.29644337751083
10
-41.216929363049331
20
115.37644337751082
42
0.99999999999999989
10
-44.264929363049333
20
115.37644337751082
0
LWPOLYLINE
5
104
100
AcDbEntity
8
0
100
AcDbPolyline
90
4
70
1
43
0.0
10
51.216929363049466
20
110.29644337751077
42
0.99999999999999989
10
54.264929363049468
20
110.29644337751077
10
54.264929363049475
20
115.37644337751075
42
0.99999999999999989
10
51.216929363049466
20
115.37644337751075
0
LWPOLYLINE
5
105
100
AcDbEntity
8
0
100
AcDbPolyline
90
4
70
1
43
0.0
10
49.264929363049475
20
115.37644337751075
42
0.99999999999999989
10
46.216929363049474
20
115.37644337751075
10
46.216929363049466
20
110.29644337751077
42
0.99999999999999989
10
49.264929363049468
20
110.29644337751077
0
LWPOLYLINE
5
106
100
AcDbEntity
8
0
100
AcDbPolyline
90
4
70
1
43
0.0
10
-41.216929363049317
20
154.87644337751081
42
0.99999999999999989
10
-44.264929363049319
20
154.87644337751081
10
-44.264929363049319
20
149.79644337751083
42
0.99999999999999989
10
-41.216929363049317
20
149.79644337751083
0
LWPOLYLINE
5
107
100
AcDbEntity
8
0
100
AcDbPolyline
90
4
70
1
43
0.0
10
39.264929363049504
20
154.87644337751075
42
0.99999999999999989
10
36.216929363049502
20
154.87644337751075
10
36.216929363049495
20
149.79644337751074
42
0.99999999999999989
10
39.264929363049497
20
149.79644337751074
0
LWPOLYLINE
5
108
100
AcDbEntity
8
0
100
AcDbPolyline
90
4
70
1
43
0.0
10
41.216929363049495
20
149.79644337751074
42
0.99999999999999989
10
44.264929363049497
20
149.79644337751074
10
44.264929363049497
20
154.87644337751075
42
0.99999999999999989
10
41.216929363049495
20
154.87644337751075
0
LWPOLYLINE
5
109
100
AcDbEntity
8
0
100
AcDbPolyline
90
4
70
1
43
0.0
10
-26.216929363049314
20
154.87644337751078
42
0.99999999999999989
10
-29.264929363049315
20
154.87644337751078
10
-29.264929363049319
20
149.7964433775108
42
0.99999999999999989
10
-26.216929363049317
20
149.7964433775108
0
LWPOLYLINE
5
110
100
AcDbEntity
8
0
100
AcDbPolyline
90
4
70
1
43
0.0
10
-11.216929363049314
20
154.87644337751078
42
0.99999999999999989
10
-14.264929363049315
20
154.87644337751078
10
-14.264929363049317
20
149.7964433775108
42
0.99999999999999989
10
-11.216929363049315
20
149.7964433775108
0
LWPOLYLINE
5
111
100
AcDbEntity
8
0
100
AcDbPolyline
90
4
70
1
43
0.0
10
-6.2169293630493119
20
154.87644337751078
42
0.99999999999999989
10
-9.2649293630493137
20
154.87644337751078
10
-9.2649293630493172
20
149.7964433775108
42
0.99999999999999989
10
-6.2169293630493172
20
149.7964433775108
0
LWPOLYLINE
5
112
100
AcDbEntity
8
0
100
AcDbPolyline
90
4
70
1
43
0.0
10
-1.2169293630493123
20
154.87644337751078
42
0.99999999999999989
10
-4.2649293630493137
20
154.87644337751078
10
-4.2649293630493181
20
149.7964433775108
42
0.99999999999999989
10
-1.2169293630493172
20
149.7964433775108
0
LWPOLYLINE
5
113
100
AcDbEntity
8
0
100
AcDbPolyline
90
4
70
1
43
0.0
10
-36.216929363049346
20
115.37644337751082
42
0.99999999999999989
10
-39.264929363049347
20
115.37644337751082
10
-39.264929363049347
20
110.29644337751083
42
0.99999999999999989
10
-36.216929363049346
20
110.29644337751083
0
LWPOLYLINE
5
114
100
AcDbEntity
8
0
100
AcDbPolyline
90
4
70
1
43
0.0
10
56.216929363049466
20
110.29644337751077
42
0.99999999999999989
10
59.264929363049468
20
110.29644337751077
10
59.264929363049475
20
115.37644337751075
42
0.99999999999999989
10
56.216929363049466
20
115.37644337751075
0
LWPOLYLINE
5
115
100
AcDbEntity
8
0
100
AcDbPolyline
90
4
70
1
43
0.0
10
-19.264929363049347
20
110.2964433775108
42
0.99999999999999989
10
-16.216929363049346
20
110.2964433775108
10
-16.216929363049342
20
115.37644337751078
42
0.99999999999999989
10
-19.264929363049344
20
115.37644337751078
0
LWPOLYLINE
5
116
100
AcDbEntity
8
0
100
AcDbPolyline
90
4
70
1
43
0.0
10
-34.264929363049319
20
149.79644337751083
42
0.99999999999999989
10
-31.216929363049317
20
149.79644337751074
10
-31.216929363049314
20
154.87644337751078
42
0.99999999999999989
10
-34.264929363049312
20
154.87644337751081
0
LWPOLYLINE
5
117
100
AcDbEntity
8
0
100
AcDbPolyline
90
4
70
1
43
0.0
10
-16.216929363049314
20
154.87644337751078
42
0.99999999999999989
10
-19.264929363049315
20
154.87644337751078
10
-19.264929363049315
20
149.7964433775108
42
0.99999999999999989
10
-16.216929363049314
20
149.7964433775108
0
LWPOLYLINE
5
118
100
AcDbEntity
8
0
100
AcDbPolyline
90
4
70
1
43
0.0
10
-46.216929363049331
20
115.37644337751082
42
0.99999999999999989
10
-49.264929363049333
20
115.37644337751082
10
-49.264929363049347
20
110.29644337751083
42
0.99999999999999989
10
-46.216929363049346
20
110.29644337751083
0
LWPOLYLINE
5
119
100
AcDbEntity
8
0
100
AcDbPolyline
90
4
70
1
43
0.0
10
-34.264929363049347
20
110.29644337751083
42
0.99999999999999989
10
-31.216929363049346
20
110.29644337751077
10
-31.216929363049346
20
115.37644337751078
42
0.99999999999999989
10
-34.264929363049347
20
115.37644337751082
0
LWPOLYLINE
5
120
100
AcDbEntity
8
0
100
AcDbPolyline
90
4
70
1
43
0.0
10
-49.264929363049319
20
149.79644337751083
42
0.99999999999999989
10
-46.216929363049317
20
149.79644337751083
10
-46.216929363049317
20
154.87644337751081
42
0.99999999999999989
10
-49.264929363049319
20
154.87644337751081
0
LWPOLYLINE
5
121
100
AcDbEntity
8
0
100
AcDbPolyline
90
4
70
1
43
0.0
10
-24.264929363049319
20
149.7964433775108
42
0.99999999999999989
10
-21.216929363049317
20
149.7964433775108
10
-21.216929363049314
20
154.87644337751078
42
0.99999999999999989
10
-24.264929363049315
20
154.87644337751078
0
LWPOLYLINE
5
122
100
AcDbEntity
8
0
100
AcDbPolyline
90
4
70
1
43
0.0
10
21.21692936304942
20
-154.87644337751078
42
0.99999999999999989
10
24.264929363049422
20
-154.87644337751078
10
24.264929363049422
20
-149.7964433775108
42
0.99999999999999989
10
21.216929363049417
20
-149.7964433775108
0
LWPOLYLINE
5
123
100
AcDbEntity
8
0
100
AcDbPolyline
90
4
70
1
43
0.0
10
14.264929363049422
20
-149.7964433775108
42
0.99999999999999989
10
11.21692936304942
20
-149.7964433775108
10
11.21692936304942
20
-154.87644337751078
42
0.99999999999999989
10
14.264929363049417
20
-154.87644337751078
0
LWPOLYLINE
5
124
100
AcDbEntity
8
0
100
AcDbPolyline
90
4
70
1
43
0.0
10
39.264929363049418
20
-149.7964433775108
42
0.99999999999999989
10
36.216929363049417
20
-149.7964433775108
10
36.216929363049417
20
-154.87644337751078
42
0.99999999999999989
10
39.264929363049418
20
-154.87644337751078
0
LWPOLYLINE
5
125
100
AcDbEntity
8
0
100
AcDbPolyline
90
4
70
1
43
0.0
10
44.264929363049418
20
-149.7964433775108
42
0.99999999999999989
10
41.216929363049417
20
-149.7964433775108
10
41.216929363049417
20
-154.87644337751078
42
0.99999999999999989
10
44.264929363049418
20
-154.87644337751078
0
LWPOLYLINE
5
126
100
AcDbEntity
8
0
100
AcDbPolyline
90
4
70
1
43
0.0
10
19.264929363049422
20
-149.7964433775108
42
0.99999999999999989
10
16.21692936304942
20
-149.7964433775108
10
16.21692936304942
20
-154.87644337751078
42
0.99999999999999989
10
19.264929363049418
20
-154.87644337751078
0
LWPOLYLINE
5
127
100
AcDbEntity
8
0
100
AcDbPolyline
90
4
70
1
43
0.0
10
51.216929363049417
20
-154.87644337751078
42
0.99999999999999989
10
54.264929363049418
20
-154.87644337751078
10
54.264929363049418
20
-149.7964433775108
42
0.99999999999999989
10
51.216929363049417
20
-149.7964433775108
0
LWPOLYLINE
5
128
100
AcDbEntity
8
0
100
AcDbPolyline
90
4
70
1
43
0.0
10
6.2169293630494185
20
-115.37644337751078
42
0.99999999999999989
10
9.2649293630494203
20
-115.37644337751078
10
9.2649293630494203
20
-110.2964433775108
42
0.99999999999999989
10
6.2169293630494193
20
-110.2964433775108
0
LWPOLYLINE
5
129
100
AcDbEntity
8
0
100
AcDbPolyline
90
4
70
1
43
0.0
10
1.2169293630494185
20
-115.37644337751078
42
0.99999999999999989
10
4.2649293630494203
20
-115.37644337751078
10
4.2649293630494203
20
-110.2964433775108
42
0.99999999999999989
10
1.2169293630494193
20
-110.2964433775108
0
LWPOLYLINE
5
130
100
AcDbEntity
8
0
100
AcDbPolyline
90
4
70
1
43
0.0
10
29.264929363049422
20
-149.7964433775108
42
0.99999999999999989
10
26.21692936304942
20
-149.7964433775108
10
26.21692936304942
20
-154.87644337751078
42
0.99999999999999989
10
29.264929363049418
20
-154.87644337751078
0
LWPOLYLINE
5
131
100
AcDbEntity
8
0
100
AcDbPolyline
90
4
70
1
43
0.0
10
6.2169293630494185
20
-154.87644337751078
42
0.99999999999999989
10
9.2649293630494203
20
-154.87644337751078
10
9.2649293630494203
20
-149.7964433775108
42
0.99999999999999989
10
6.2169293630494193
20
-149.7964433775108
0
LWPOLYLINE
5
132
100
AcDbEntity
8
0
100
AcDbPolyline
90
4
70
1
43
0.0
10
31.21692936304942
20
-115.37644337751078
42
0.99999999999999989
10
34.264929363049418
20
-115.37644337751078
10
34.264929363049418
20
-110.2964433775108
42
0.99999999999999989
10
31.216929363049417
20
-110.2964433775108
0
LWPOLYLINE
5
133
100
AcDbEntity
8
0
100
AcDbPolyline
90
4
70
1
43
0.0
10
1.2169293630494185
20
-154.87644337751078
42
0.99999999999999989
10
4.2649293630494203
20
-154.87644337751078
10
4.2649293630494203
20
-149.7964433775108
42
0.99999999999999989
10
1.2169293630494193
20
-149.7964433775108
0
LWPOLYLINE
5
134
100
AcDbEntity
8
0
100
AcDbPolyline
90
4
70
1
43
0.0
10
26.21692936304942
20
-115.37644337751078
42
0.99999999999999989
10
29.264929363049422
20
-115.37644337751078
10
29.264929363049422
20
-110.2964433775108
42
0.99999999999999989
10
26.216929363049417
20
-110.2964433775108
0
LWPOLYLINE
5
135
100
AcDbEntity
8
0
100
AcDbPolyline
90
4
70
1
43
0.0
10
21.21692936304942
20
-115.37644337751078
42
0.99999999999999989
10
24.264929363049422
20
-115.37644337751078
10
24.264929363049422
20
-110.2964433775108
42
0.99999999999999989
10
21.216929363049417
20
-110.2964433775108
0
LWPOLYLINE
5
136
100
AcDbEntity
8
0
100
AcDbPolyline
90
4
70
1
43
0.0
10
46.216929363049417
20
-154.87644337751078
42
0.99999999999999989
10
49.264929363049418
20
-154.87644337751078
10
49.264929363049418
20
-149.7964433775108
42
0.99999999999999989
10
46.216929363049417
20
-149.7964433775108
0
LWPOLYLINE
5
137
100
AcDbEntity
8
0
100
AcDbPolyline
90
4
70
1
43
0.0
10
34.264929363049418
20
-149.7964433775108
42
0.99999999999999989
10
31.21692936304942
20
-149.7964433775108
10
31.21692936304942
20
-154.87644337751078
42
0.99999999999999989
10
34.264929363049418
20
-154.87644337751078
0
LWPOLYLINE
5
138
100
AcDbEntity
8
0
100
AcDbPolyline
90
4
70
1
43
0.0
10
51.216929363049417
20
-115.37644337751078
42
0.99999999999999989
10
54.264929363049418
20
-115.37644337751078
10
54.264929363049418
20
-110.2964433775108
42
0.99999999999999989
10
51.216929363049417
20
-110.2964433775108
0
LWPOLYLINE
5
139
100
AcDbEntity
8
0
100
AcDbPolyline
90
4
70
1
43
0.0
10
46.216929363049417
20
-115.37644337751078
42
0.99999999999999989
10
49.264929363049418
20
-115.37644337751078
10
49.264929363049418
20
-110.2964433775108
42
0.99999999999999989
10
46.216929363049417
20
-110.2964433775108
0
LWPOLYLINE
5
140
100
AcDbEntity
8
0
100
AcDbPolyline
90
4
70
1
43
0.0
10
41.216929363049417
20
-115.37644337751078
42
0.99999999999999989
10
44.264929363049418
20
-115.37644337751078
10
44.264929363049418
20
-110.2964433775108
42
0.99999999999999989
10
41.216929363049417
20
-110.2964433775108
0
LWPOLYLINE
5
141
100
AcDbEntity
8
0
100
AcDbPolyline
90
4
70
1
43
0.0
10
64.264929363049418
20
-149.7964433775108
42
0.99999999999999989
10
61.216929363049417
20
-149.7964433775108
10
61.216929363049417
20
-154.87644337751078
42
0.99999999999999989
10
64.264929363049418
20
-154.87644337751078
0
LWPOLYLINE
5
142
100
AcDbEntity
8
0
100
AcDbPolyline
90
4
70
1
43
0.0
10
63.29299999999995
20
-163.43174122871832
42
0.99999999999999989
10
63.29299999999995
20
-160.38374122871832
10
58.212999999999937
20
-160.38374122871832
42
0.99999999999999989
10
58.212999999999944
20
-163.43174122871832
0
LWPOLYLINE
5
143
100
AcDbEntity
8
0
100
AcDbPolyline
90
4
70
1
43
0.0
10
61.216929363049417
20
-115.37644337751078
42
0.99999999999999989
10
64.264929363049418
20
-115.37644337751078
10
64.264929363049418
20
-110.2964433775108
42
0.99999999999999989
10
61.216929363049417
20
-110.2964433775108
0
LWPOLYLINE
5
144
100
AcDbEntity
8
0
100
AcDbPolyline
90
4
70
1
43
0.0
10
56.216929363049417
20
-115.37644337751078
42
0.99999999999999989
10
59.264929363049418
20
-115.37644337751078
10
59.264929363049418
20
-110.2964433775108
42
0.99999999999999989
10
56.216929363049417
20
-110.2964433775108
0
LWPOLYLINE
5
145
100
AcDbEntity
8
0
100
AcDbPolyline
90
4
70
1
43
0.0
10
-63.292999999999822
20
163.43174122871832
42
0.99999999999999989
10
-63.292999999999836
20
160.38374122871832
10
-58.212999999999823
20
160.38374122871832
42
0.99999999999999989
10
-58.212999999999809
20
163.43174122871832
0
LWPOLYLINE
5
146
100
AcDbEntity
8
0
100
AcDbPolyline
90
4
70
1
43
0.0
10
-64.264929363049347
20
110.29644337751085
42
0.99999999999999989
10
-61.216929363049346
20
110.29644337751085
10
-61.216929363049331
20
115.37644337751084
42
0.99999999999999989
10
-64.264929363049333
20
115.37644337751084
0
LWPOLYLINE
5
147
100
AcDbEntity
8
0
100
AcDbPolyline
90
4
70
1
43
0.0
10
41.216929363049466
20
110.29644337751077
10
41.216929363049474
20
115.37644337751075
42
-0.99999999999999989
10
44.264929363049475
20
115.37644337751075
10
44.264929363049468
20
110.29644337751077
42
-0.99999999999999989
0
LWPOLYLINE
5
148
100
AcDbEntity
8
0
100
AcDbPolyline
90
4
70
1
43
0.0
10
36.216929363049474
20
110.29644337751077
10
36.216929363049474
20
115.37644337751075
42
-0.99999999999999989
10
39.264929363049475
20
115.37644337751075
10
39.264929363049475
20
110.29644337751077
42
-0.99999999999999989
0
LWPOLYLINE
5
149
100
AcDbEntity
8
0
100
AcDbPolyline
90
4
70
1
43
0.0
10
36.216929363049417
20
-115.37644337751078
42
0.99999999999999989
10
39.264929363049418
20
-115.37644337751078
10
39.264929363049418
20
-110.2964433775108
42
0.99999999999999989
10
36.216929363049417
20
-110.2964433775108
0
LWPOLYLINE
5
150
100
AcDbEntity
8
0
100
AcDbPolyline
90
4
70
1
43
0.0
10
-59.264929363049347
20
110.29644337751085
42
0.99999999999999989
10
-56.216929363049346
20
110.29644337751085
10
-56.216929363049331
20
115.37644337751082
42
0.99999999999999989
10
-59.264929363049333
20
115.37644337751084
0
LWPOLYLINE
5
151
100
AcDbEntity
8
0
100
AcDbPolyline
90
4
70
1
43
0.0
10
26.216929363049495
20
149.7964433775108
42
0.99999999999999989
10
29.264929363049497
20
149.7964433775108
10
29.2649293630495
20
154.87644337751078
42
0.99999999999999989
10
26.216929363049502
20
154.87644337751078
0
LWPOLYLINE
5
152
100
AcDbEntity
8
0
100
AcDbPolyline
90
4
70
1
43
0.0
10
11.21692936304942
20
-115.37644337751078
42
0.99999999999999989
10
14.264929363049422
20
-115.37644337751078
10
14.264929363049422
20
-110.2964433775108
42
0.99999999999999989
10
11.216929363049415
20
-110.2964433775108
0
LWPOLYLINE
5
153
100
AcDbEntity
8
0
100
AcDbPolyline
90
4
70
1
43
0.0
10
-54.264929363049347
20
110.29644337751083
42
0.99999999999999989
10
-51.216929363049346
20
110.29644337751083
10
-51.216929363049331
20
115.37644337751082
42
0.99999999999999989
10
-54.264929363049333
20
115.37644337751082
0
LWPOLYLINE
5
154
100
AcDbEntity
8
0
100
AcDbPolyline
90
4
70
1
43
0.0
10
-59.264929363049319
20
149.79644337751083
42
0.99999999999999989
10
-56.216929363049317
20
149.79644337751083
10
-56.216929363049317
20
154.87644337751081
42
0.99999999999999989
10
-59.264929363049319
20
154.87644337751081
0
LWPOLYLINE
5
155
100
AcDbEntity
8
0
100
AcDbPolyline
90
4
70
1
43
0.0
10
-61.216929363049317
20
154.87644337751081
42
0.99999999999999989
10
-64.264929363049319
20
154.87644337751081
10
-64.264929363049319
20
149.79644337751083
42
0.99999999999999989
10
-61.216929363049317
20
149.79644337751083
0
LWPOLYLINE
5
156
100
AcDbEntity
8
0
100
AcDbPolyline
90
4
70
1
43
0.0
10
14.264929363049481
20
115.37644337751078
42
0.99999999999999989
10
11.216929363049479
20
115.37644337751078
10
11.216929363049477
20
110.2964433775108
42
0.99999999999999989
10
14.264929363049479
20
110.2964433775108
0
LWPOLYLINE
5
157
100
AcDbEntity
8
0
100
AcDbPolyline
90
4
70
1
43
0.0
10
16.21692936304942
20
-115.37644337751078
42
0.99999999999999989
10
19.264929363049422
20
-115.37644337751078
10
19.264929363049422
20
-110.2964433775108
42
0.99999999999999989
10
16.216929363049417
20
-110.2964433775108
0
LWPOLYLINE
5
158
100
AcDbEntity
8
0
100
AcDbPolyline
90
4
70
1
43
0.0
10
61.216929363049466
20
110.29644337751077
10
61.216929363049474
20
115.37644337751075
42
-0.99999999999999989
10
64.264929363049475
20
115.37644337751075
10
64.264929363049475
20
110.29644337751077
42
-0.99999999999999989
0
LWPOLYLINE
5
159
100
AcDbEntity
8
0
100
AcDbPolyline
90
4
70
1
43
0.0
10
29.264929363049479
20
115.37644337751078
10
29.264929363049479
20
110.2964433775108
42
-0.99999999999999989
10
26.216929363049477
20
110.2964433775108
10
26.216929363049477
20
115.37644337751078
42
-0.99999999999999989
0
LWPOLYLINE
5
160
100
AcDbEntity
8
0
100
AcDbPolyline
90
4
70
1
43
0.0
10
21.216929363049495
20
149.7964433775108
42
0.99999999999999989
10
24.264929363049497
20
149.7964433775108
10
24.2649293630495
20
154.87644337751078
42
0.99999999999999989
10
21.216929363049502
20
154.87644337751078
0
LWPOLYLINE
5
161
100
AcDbEntity
8
0
100
AcDbPolyline
90
4
70
1
43
0.0
10
-14.264929363049346
20
110.2964433775108
42
0.99999999999999989
10
-11.216929363049344
20
110.2964433775108
10
-11.216929363049342
20
115.37644337751078
42
0.99999999999999989
10
-14.264929363049344
20
115.37644337751078
0
LWPOLYLINE
5
162
100
AcDbEntity
8
0
100
AcDbPolyline
90
4
70
1
43
0.0
10
4.2649293630495011
20
154.87644337751078
10
4.2649293630494975
20
149.7964433775108
42
-0.99999999999999989
10
1.2169293630494962
20
149.7964433775108
10
1.2169293630494982
20
154.87644337751078
42
-0.99999999999999989
0
LWPOLYLINE
5
163
100
AcDbEntity
8
0
100
AcDbPolyline
90
4
70
1
43
0.0
10
-54.264929363049319
20
149.79644337751083
42
0.99999999999999989
10
-51.216929363049317
20
149.79644337751083
10
-51.216929363049317
20
154.87644337751081
42
0.99999999999999989
10
-54.264929363049319
20
154.87644337751081
0
LWPOLYLINE
5
164
100
AcDbEntity
8
0
100
AcDbPolyline
90
4
70
1
43
0.0
10
6.2169293630494948
20
149.7964433775108
10
6.2169293630494984
20
154.87644337751078
42
-0.99999999999999989
10
9.2649293630495002
20
154.87644337751078
10
9.2649293630494984
20
149.7964433775108
42
-0.99999999999999989
0
LWPOLYLINE
5
165
100
AcDbEntity
8
0
100
AcDbPolyline
90
4
70
1
43
0.0
10
11.216929363049495
20
149.7964433775108
10
11.216929363049498
20
154.87644337751078
42
-0.99999999999999989
10
14.2649293630495
20
154.87644337751078
10
14.2649293630495
20
149.7964433775108
42
-0.99999999999999989
0
LWPOLYLINE
5
166
100
AcDbEntity
8
0
100
AcDbPolyline
90
4
70
1
43
0.0
10
-24.264929363049347
20
110.2964433775108
42
0.99999999999999989
10
-21.216929363049346
20
110.2964433775108
10
-21.216929363049346
20
115.37644337751078
42
0.99999999999999989
10
-24.264929363049347
20
115.37644337751078
0
LWPOLYLINE
5
167
100
AcDbEntity
8
0
100
AcDbPolyline
90
4
70
1
43
0.0
10
-56.216929363049395
20
-149.7964433775108
42
0.99999999999999989
10
-59.264929363049397
20
-149.7964433775108
10
-59.264929363049397
20
-154.87644337751078
42
0.99999999999999989
10
-56.216929363049395
20
-154.87644337751078
0
LWPOLYLINE
5
168
100
AcDbEntity
8
0
100
AcDbPolyline
90
4
70
1
43
0.0
10
-61.216929363049395
20
-149.7964433775108
42
0.99999999999999989
10
-64.264929363049404
20
-149.7964433775108
10
-64.264929363049404
20
-154.87644337751078
42
0.99999999999999989
10
-61.216929363049395
20
-154.87644337751078
0
LWPOLYLINE
5
169
100
AcDbEntity
8
0
100
AcDbPolyline
90
4
70
1
43
0.0
10
-11.216929363049402
20
-110.2964433775108
42
0.99999999999999989
10
-14.264929363049404
20
-110.2964433775108
10
-14.264929363049404
20
-115.37644337751078
42
0.99999999999999989
10
-11.216929363049402
20
-115.37644337751078
0
LWPOLYLINE
5
170
100
AcDbEntity
8
0
100
AcDbPolyline
90
4
70
1
43
0.0
10
-16.216929363049402
20
-110.2964433775108
42
0.99999999999999989
10
-19.264929363049404
20
-110.2964433775108
10
-19.264929363049404
20
-115.37644337751078
42
0.99999999999999989
10
-16.216929363049402
20
-115.37644337751078
0
LWPOLYLINE
5
171
100
AcDbEntity
8
0
100
AcDbPolyline
90
4
70
1
43
0.0
10
-4.2649293630494007
20
-115.37644337751078
42
0.99999999999999989
10
-1.2169293630493994
20
-115.37644337751078
10
-1.2169293630494005
20
-110.2964433775108
42
0.99999999999999989
10
-4.264929363049399
20
-110.2964433775108
0
LWPOLYLINE
5
172
100
AcDbEntity
8
0
100
AcDbPolyline
90
4
70
1
43
0.0
10
-39.264929363049397
20
-154.87644337751078
42
0.99999999999999989
10
-36.216929363049395
20
-154.87644337751078
10
-36.216929363049395
20
-149.7964433775108
42
0.99999999999999989
10
-39.264929363049397
20
-149.7964433775108
0
LWPOLYLINE
5
173
100
AcDbEntity
8
0
100
AcDbPolyline
90
4
70
1
43
0.0
10
-63.292999999999907
20
-160.38374122871832
10
-58.212999999999901
20
-160.38374122871832
42
-0.99999999999999989
10
-58.212999999999901
20
-163.43174122871832
10
-63.292999999999907
20
-163.43174122871832
42
-0.99999999999999989
0
LWPOLYLINE
5
174
100
AcDbEntity
8
0
100
AcDbPolyline
90
4
70
1
43
0.0
10
56.216929363049417
20
-154.87644337751078
42
0.99999999999999989
10
59.264929363049418
20
-154.87644337751078
10
59.264929363049418
20
-149.7964433775108
42
0.99999999999999989
10
56.216929363049417
20
-149.7964433775108
0
LWPOLYLINE
5
175
100
AcDbEntity
8
0
100
AcDbPolyline
90
4
70
1
43
0.0
10
-46.216929363049395
20
-149.7964433775108
10
-46.216929363049395
20
-154.87644337751078
42
-0.99999999999999989
10
-49.264929363049397
20
-154.87644337751078
10
-49.264929363049397
20
-149.7964433775108
42
-0.99999999999999989
0
LWPOLYLINE
5
176
100
AcDbEntity
8
0
100
AcDbPolyline
90
4
70
1
43
0.0
10
-49.264929363049397
20
-115.37644337751078
42
0.99999999999999989
10
-46.216929363049395
20
-115.37644337751078
10
-46.216929363049395
20
-110.2964433775108
42
0.99999999999999989
10
-49.264929363049397
20
-110.2964433775108
0
LWPOLYLINE
5
177
100
AcDbEntity
8
0
100
AcDbPolyline
90
4
70
1
43
0.0
10
-61.216929363049395
20
-110.29644337751083
10
-61.216929363049395
20
-115.37644337751081
42
-0.99999999999999989
10
-64.264929363049404
20
-115.37644337751081
10
-64.264929363049404
20
-110.2964433775108
42
-0.99999999999999989
0
LWPOLYLINE
5
178
100
AcDbEntity
8
0
100
AcDbPolyline
90
4
70
1
43
0.0
10
-41.216929363049395
20
-149.7964433775108
10
-41.216929363049395
20
-154.87644337751078
42
-0.99999999999999989
10
-44.264929363049397
20
-154.87644337751078
10
-44.264929363049397
20
-149.7964433775108
42
-0.99999999999999989
0
LWPOLYLINE
5
179
100
AcDbEntity
8
0
100
AcDbPolyline
90
4
70
1
43
0.0
10
-31.216929363049402
20
-110.2964433775108
10
-31.216929363049402
20
-115.37644337751078
42
-0.99999999999999989
10
-34.264929363049404
20
-115.37644337751078
10
-34.264929363049404
20
-110.2964433775108
42
-0.99999999999999989
0
LWPOLYLINE
5
180
100
AcDbEntity
8
0
100
AcDbPolyline
90
4
70
1
43
0.0
10
-56.216929363049395
20
-110.29644337751083
10
-56.216929363049381
20
-115.37644337751081
42
-0.99999999999999989
10
-59.264929363049397
20
-115.37644337751081
10
-59.264929363049397
20
-110.2964433775108
42
-0.99999999999999989
0
LWPOLYLINE
5
181
100
AcDbEntity
8
0
100
AcDbPolyline
90
4
70
1
43
0.0
10
-44.264929363049397
20
-115.37644337751078
42
0.99999999999999989
10
-41.216929363049395
20
-115.37644337751078
10
-41.216929363049395
20
-110.2964433775108
42
0.99999999999999989
10
-44.264929363049397
20
-110.2964433775108
0
LWPOLYLINE
5
182
100
AcDbEntity
8
0
100
AcDbPolyline
90
4
70
1
43
0.0
10
16.216929363049498
20
149.7964433775108
42
0.99999999999999989
10
19.2649293630495
20
149.7964433775108
10
19.2649293630495
20
154.87644337751078
42
0.99999999999999989
10
16.216929363049502
20
154.87644337751078
0
LWPOLYLINE
5
183
100
AcDbEntity
8
0
100
AcDbPolyline
90
4
70
1
43
0.0
10
46.216929363049495
20
149.79644337751074
42
0.99999999999999989
10
49.264929363049497
20
149.79644337751074
10
49.264929363049497
20
154.87644337751075
42
0.99999999999999989
10
46.216929363049495
20
154.87644337751075
0
LWPOLYLINE
5
184
100
AcDbEntity
8
0
100
AcDbPolyline
90
4
70
1
43
0.0
10
-9.2649293630493936
20
-154.87644337751078
42
0.99999999999999989
10
-6.2169293630493918
20
-154.87644337751078
10
-6.2169293630493936
20
-149.7964433775108
42
0.99999999999999989
10
-9.2649293630493936
20
-149.7964433775108
0
LWPOLYLINE
5
185
100
AcDbEntity
8
0
100
AcDbPolyline
90
4
70
1
43
0.0
10
-54.264929363049397
20
-154.87644337751078
42
0.99999999999999989
10
-51.216929363049395
20
-154.87644337751078
10
-51.216929363049395
20
-149.7964433775108
42
0.99999999999999989
10
-54.264929363049397
20
-149.7964433775108
0
LWPOLYLINE
5
186
100
AcDbEntity
8
0
100
AcDbPolyline
90
4
70
1
43
0.0
10
-29.264929363049404
20
-115.37644337751078
42
0.99999999999999989
10
-26.216929363049402
20
-115.37644337751078
10
-26.216929363049402
20
-110.2964433775108
42
0.99999999999999989
10
-29.264929363049404
20
-110.2964433775108
0
LWPOLYLINE
5
187
100
AcDbEntity
8
0
100
AcDbPolyline
90
4
70
1
43
0.0
10
-21.216929363049402
20
-110.2964433775108
42
0.99999999999999989
10
-24.264929363049404
20
-110.2964433775108
10
-24.264929363049404
20
-115.37644337751078
42
0.99999999999999989
10
-21.216929363049402
20
-115.37644337751078
0
LWPOLYLINE
5
188
100
AcDbEntity
8
0
100
AcDbPolyline
90
4
70
1
43
0.0
10
-14.264929363049394
20
-154.87644337751078
42
0.99999999999999989
10
-11.216929363049392
20
-154.87644337751078
10
-11.216929363049392
20
-149.7964433775108
42
0.99999999999999989
10
-14.264929363049394
20
-149.7964433775108
0
LWPOLYLINE
5
189
100
AcDbEntity
8
0
100
AcDbPolyline
90
4
70
1
43
0.0
10
-9.2649293630493439
20
110.2964433775108
42
0.99999999999999989
10
-6.216929363049343
20
110.2964433775108
10
-6.2169293630493385
20
115.37644337751078
42
0.99999999999999989
10
-9.2649293630493403
20
115.37644337751078
0
LWPOLYLINE
5
190
100
AcDbEntity
8
0
100
AcDbPolyline
90
4
70
1
43
0.0
10
-6.2169293630494007
20
-110.2964433775108
42
0.99999999999999989
10
-9.2649293630494025
20
-110.2964433775108
10
-9.2649293630494007
20
-115.37644337751078
42
0.99999999999999989
10
-6.2169293630493971
20
-115.37644337751078
0
LWPOLYLINE
5
191
100
AcDbEntity
8
0
100
AcDbPolyline
90
4
70
1
43
0.0
10
-26.216929363049392
20
-149.7964433775108
42
0.99999999999999989
10
-29.264929363049394
20
-149.7964433775108
10
-29.264929363049394
20
-154.87644337751078
42
0.99999999999999989
10
-26.216929363049392
20
-154.87644337751078
0
LWPOLYLINE
5
192
100
AcDbEntity
8
0
100
AcDbPolyline
90
4
70
1
43
0.0
10
-16.216929363049392
20
-149.7964433775108
10
-16.216929363049392
20
-154.87644337751078
42
-0.99999999999999989
10
-19.264929363049394
20
-154.87644337751078
10
-19.264929363049394
20
-149.7964433775108
42
-0.99999999999999989
0
LWPOLYLINE
5
193
100
AcDbEntity
8
0
100
AcDbPolyline
90
4
70
1
43
0.0
10
-4.2649293630493945
20
-154.87644337751078
10
-4.2649293630493954
20
-149.7964433775108
42
-0.99999999999999989
10
-1.2169293630493936
20
-149.7964433775108
10
-1.2169293630493927
20
-154.87644337751078
42
-0.99999999999999989
0
LWPOLYLINE
5
194
100
AcDbEntity
8
0
100
AcDbPolyline
90
4
70
1
43
0.0
10
-24.264929363049394
20
-154.87644337751078
42
0.99999999999999989
10
-21.216929363049392
20
-154.87644337751078
10
-21.216929363049392
20
-149.7964433775108
42
0.99999999999999989
10
-24.264929363049394
20
-149.7964433775108
0
LWPOLYLINE
5
195
100
AcDbEntity
8
0
100
AcDbPolyline
90
4
70
1
43
0.0
10
1.216929363049476
20
110.2964433775108
42
0.99999999999999989
10
4.2649293630494753
20
110.2964433775108
10
4.2649293630494798
20
115.37644337751078
42
0.99999999999999989
10
1.2169293630494771
20
115.37644337751078
0
LWPOLYLINE
5
196
100
AcDbEntity
8
0
100
AcDbPolyline
90
4
70
1
43
0.0
10
9.2649293630494789
20
115.37644337751078
10
9.2649293630494771
20
110.2964433775108
42
-0.99999999999999989
10
6.2169293630494762
20
110.2964433775108
10
6.2169293630494789
20
115.37644337751078
42
-0.99999999999999989
0
LWPOLYLINE
5
197
100
AcDbEntity
8
0
100
AcDbPolyline
90
4
70
1
43
0.0
10
54.264929363049497
20
154.87644337751075
42
0.99999999999999989
10
51.216929363049495
20
154.87644337751075
10
51.216929363049495
20
149.79644337751074
42
0.99999999999999989
10
54.264929363049504
20
149.79644337751074
0
LWPOLYLINE
5
198
100
AcDbEntity
8
0
100
AcDbPolyline
90
4
70
1
43
0.0
10
56.216929363049495
20
149.79644337751074
42
0.99999999999999989
10
59.264929363049497
20
149.79644337751074
10
59.264929363049497
20
154.87644337751075
42
0.99999999999999989
10
56.216929363049502
20
154.87644337751075
0
LWPOLYLINE
5
199
100
AcDbEntity
8
0
100
AcDbPolyline
90
4
70
1
43
0.0
10
-54.264929363049397
20
-115.37644337751078
42
0.99999999999999989
10
-51.216929363049395
20
-115.37644337751078
10
-51.216929363049395
20
-110.2964433775108
42
0.99999999999999989
10
-54.264929363049397
20
-110.2964433775108
0
LWPOLYLINE
5
200
100
AcDbEntity
8
0
100
AcDbPolyline
90
4
70
1
43
0.0
10
58.213000000000015
20
163.43174122871832
10
63.293000000000028
20
163.43174122871832
42
-0.99999999999999989
10
63.293000000000028
20
160.38374122871832
10
58.213000000000015
20
160.38374122871832
42
-0.99999999999999989
0
LWPOLYLINE
5
201
100
AcDbEntity
8
0
100
AcDbPolyline
90
4
70
1
43
0.0
10
-36.216929363049402
20
-110.2964433775108
42
0.99999999999999989
10
-39.264929363049404
20
-110.2964433775108
10
-39.264929363049404
20
-115.37644337751078
42
0.99999999999999989
10
-36.216929363049402
20
-115.37644337751078
0
LWPOLYLINE
5
202
100
AcDbEntity
8
0
100
AcDbPolyline
90
4
70
1
43
0.0
10
-1.2169293630493394
20
115.37644337751078
42
0.99999999999999989
10
-4.2649293630493412
20
115.37644337751078
10
-4.2649293630493439
20
110.2964433775108
42
0.99999999999999989
10
-1.2169293630493438
20
110.2964433775108
0
LWPOLYLINE
5
203
100
AcDbEntity
8
0
100
AcDbPolyline
90
4
70
1
43
0.0
10
64.264929363049504
20
154.87644337751075
42
0.99999999999999989
10
61.216929363049495
20
154.87644337751075
10
61.216929363049495
20
149.79644337751074
42
0.99999999999999989
10
64.264929363049504
20
149.79644337751074
0
LWPOLYLINE
5
204
100
AcDbEntity
8
0
100
AcDbPolyline
90
4
70
1
43
0.0
10
31.216929363049495
20
149.7964433775108
10
31.216929363049498
20
154.87644337751081
42
-0.99999999999999989
10
34.264929363049504
20
154.87644337751075
10
34.264929363049497
20
149.7964433775108
42
-0.99999999999999989
0
LWPOLYLINE
5
205
100
AcDbEntity
8
0
100
AcDbPolyline
90
4
70
1
43
0.0
10
24.264929363049479
20
115.37644337751078
10
24.264929363049479
20
110.2964433775108
42
-0.99999999999999989
10
21.216929363049477
20
110.2964433775108
10
21.216929363049477
20
115.37644337751078
42
-0.99999999999999989
0
LWPOLYLINE
5
206
100
AcDbEntity
8
0
100
AcDbPolyline
90
4
70
1
43
0.0
10
34.264929363049475
20
115.37644337751075
10
34.264929363049475
20
110.2964433775108
42
-0.99999999999999989
10
31.216929363049477
20
110.2964433775108
10
31.216929363049477
20
115.37644337751082
42
-0.99999999999999989
0
LWPOLYLINE
5
207
100
AcDbEntity
8
0
100
AcDbPolyline
90
4
70
1
43
0.0
10
16.216929363049477
20
110.2964433775108
42
0.99999999999999989
10
19.264929363049479
20
110.2964433775108
10
19.264929363049482
20
115.37644337751078
42
0.99999999999999989
10
16.216929363049477
20
115.37644337751078
0
LWPOLYLINE
5
208
100
AcDbEntity
8
0
100
AcDbPolyline
90
56
70
1
43
0.0
10
-66.594999999999899
20
146.16637061435915
42
0.41421356237309914
10
-68.499999999999915
20
144.26137061435915
10
-68.499999999999915
20
121.07137061435915
42
0.41421356237309231
10
-66.594999999999928
20
119.16637061435914
10
-66.594999999999928
20
106.60000000000005
42
0.41421356237309231
10
-68.499999999999929
20
104.69499999999996
10
-68.499999999999972
20
-104.69499999999994
42
0.41421356237309365
10
-66.59499999999997
20
-106.59999999999994
10
-66.594999999999985
20
-119.1663706143591
42
0.41421356237309231
10
-68.499999999999972
20
-121.07137061435913
10
-68.499999999999972
20
-144.26137061435912
42
0.41421356237309509
10
-66.59499999999997
20
-146.16637061435912
10
-66.594999999999928
20
-158.73274122871834
42
0.41421356237308682
10
-68.499999999999915
20
-160.63774122871831
10
-68.499999999999915
20
-163.17774122871833
42
0.41421356237309509
10
-66.594999999999914
20
-165.08274122871831
10
-54.910999999999902
20
-165.08274122871831
42
0.41421356237309509
10
-53.005999999999901
20
-163.17774122871833
10
-53.005999999999901
20
-160.63774122871834
42
0.41421356237309775
10
-54.910999999999923
20
-158.73274122871834
10
54.910999999999923
20
-158.73274122871834
42
0.41421356237309231
10
53.005999999999943
20
-160.63774122871834
10
53.005999999999929
20
-163.17774122871833
42
0.41421356237309509
10
54.910999999999945
20
-165.08274122871831
10
66.594999999999956
20
-165.08274122871831
42
0.41421356237309365
10
68.499999999999943
20
-163.17774122871833
10
68.499999999999957
20
-160.63774122871834
42
0.41421356237309509
10
66.594999999999942
20
-158.73274122871834
10
66.594999999999956
20
-146.1663706143591
42
0.41421356237310192
10
68.5
20
-144.26137061435912
10
68.499999999999986
20
-121.0713706143591
42
0.41421356237309231
10
66.594999999999999
20
-119.1663706143591
10
66.594999999999999
20
-106.59999999999999
42
0.41421356237308959
10
68.5
20
-104.69499999999994
10
68.500000000000057
20
104.69499999999985
42
0.41421356237309509
10
66.595000000000056
20
106.59999999999989
10
66.595000000000056
20
119.16637061435907
42
0.41421356237309365
10
68.500000000000057
20
121.07137061435907
10
68.500000000000057
20
144.26137061435907
42
0.41421356237309365
10
66.59500000000007
20
146.16637061435907
10
66.595000000000027
20
158.73274122871831
42
0.41421356237309509
10
68.500000000000057
20
160.63774122871834
10
68.500000000000028
20
163.17774122871833
42
0.41421356237309509
10
66.595000000000027
20
165.08274122871831
10
54.911000000000037
20
165.08274122871831
42
0.41421356237309642
10
53.006000000000029
20
163.17774122871833
10
53.006000000000022
20
160.63774122871834
42
0.41421356237309509
10
54.911000000000023
20
158.73274122871834
10
-54.910999999999845
20
158.73274122871837
42
0.41421356237310325
10
-53.005999999999858
20
160.63774122871837
10
-53.005999999999815
20
163.17774122871833
42
0.41421356237309509
10
-54.910999999999817
20
165.08274122871831
10
-66.594999999999814
20
165.08274122871831
42
0.41421356237309509
10
-68.499999999999815
20
163.17774122871833
10
-68.499999999999829
20
160.63774122871834
42
0.41421356237309231
10
-66.594999999999843
20
158.73274122871834
0
ENDSEC
0
SECTION
2
OBJECTS
0
DICTIONARY
5
C
100
AcDbDictionary
3
ACAD_GROUP
350
D
3
ACAD_MLINESTYLE
350
17
0
DICTIONARY
5
D
100
AcDbDictionary
0
DICTIONARY
5
1A
330
C
100
AcDbDictionary
0
DICTIONARY
5
17
100
AcDbDictionary
0
ENDSEC
0
EOF
