M48
; DRILL file {KiCad 7.0.8} date 2023 December 13, Wednesday 18:24:02
; FORMAT={-:-/ absolute / metric / decimal}
; #@! TF.CreationDate,2023-12-13T18:24:02-05:00
; #@! TF.GenerationSoftware,Kicad,Pcbnew,7.0.8
; #@! TF.FileFunction,Plated,1,2,PTH
FMAT,2
METRIC
; #@! TA.AperFunction,Plated,PTH,ComponentDrill
T1C0.910
; #@! TA.AperFunction,Plated,PTH,ComponentDrill
T2C1.000
; #@! TA.AperFunction,Plated,PTH,ComponentDrill
T3C1.100
; #@! TA.AperFunction,Plated,PTH,ComponentDrill
T4C1.500
; #@! TA.AperFunction,Plated,PTH,ComponentDrill
T5C1.550
; #@! TA.AperFunction,Plated,PTH,ComponentDrill
T6C2.000
%
G90
G05
T2
X55.705Y-17.79
X55.705Y-20.33
X55.705Y-22.87
X55.705Y-25.41
X55.705Y-27.95
X55.705Y-30.49
X55.705Y-33.03
X55.705Y-35.57
X55.705Y-38.11
X55.705Y-40.65
X55.705Y-43.19
X55.705Y-45.73
X55.705Y-48.27
X55.705Y-50.81
X55.705Y-53.35
X55.705Y-55.89
X55.705Y-58.43
X55.705Y-60.97
X55.705Y-63.51
X55.705Y-66.05
X73.485Y-17.79
X73.485Y-20.33
X73.485Y-22.87
X73.485Y-25.41
X73.485Y-27.95
X73.485Y-30.49
X73.485Y-33.03
X73.485Y-35.57
X73.485Y-38.11
X73.485Y-40.65
X73.485Y-43.19
X73.485Y-45.73
X73.485Y-48.27
X73.485Y-50.81
X73.485Y-53.35
X73.485Y-55.89
X73.485Y-58.43
X73.485Y-60.97
X73.485Y-63.51
X73.485Y-66.05
T3
X34.1Y-59.1
X36.6Y-59.1
X39.1Y-59.1
T4
X9.01Y-49.53
X15.36Y-46.99
T5
X34.1Y-44.6
X39.1Y-44.6
T1
G00X30.21Y-18.905
M15
G01X32.24Y-18.905
M16
G05
G00X30.21Y-23.605
M15
G01X32.24Y-23.605
M16
G05
G00X30.21Y-28.305
M15
G01X32.24Y-28.305
M16
G05
T2
G00X6.78Y-23.08
M15
G01X6.78Y-24.28
M16
G05
G00X9.73Y-20.48
M15
G01X10.93Y-20.48
M16
G05
G00X13.88Y-23.08
M15
G01X13.88Y-24.28
M16
G05
G00X41.7Y-17.6
M15
G01X42.9Y-17.6
M16
G05
G00X41.7Y-24.9
M15
G01X42.9Y-24.9
M16
G05
G00X46.1Y-22.0
M15
G01X46.1Y-20.8
M16
G05
T5
G00X10.005Y-28.58
M15
G01X10.655Y-28.58
M16
G05
T6
G00X30.9Y-51.2
M15
G01X30.9Y-52.0
M16
G05
G00X42.3Y-51.2
M15
G01X42.3Y-52.0
M16
G05
T0
M30
