M48
; DRILL file {KiCad 7.0.8} date 2023 December 14, Thursday 11:27:21
; FORMAT={-:-/ absolute / metric / decimal}
; #@! TF.CreationDate,2023-12-14T11:27:21-05:00
; #@! TF.GenerationSoftware,Kicad,Pcbnew,7.0.8
; #@! TF.FileFunction,Plated,1,2,PTH
FMAT,2
METRIC
; #@! TA.AperFunction,Plated,PTH,ComponentDrill
T1C1.000
%
G90
G05
T1
X74.32Y-116.0
X74.32Y-133.78
X76.86Y-116.0
X76.86Y-133.78
X79.4Y-116.0
X79.4Y-133.78
X81.94Y-116.0
X81.94Y-133.78
X84.48Y-116.0
X84.48Y-133.78
X87.02Y-116.0
X87.02Y-133.78
X89.56Y-116.0
X89.56Y-133.78
X92.1Y-116.0
X92.1Y-133.78
X94.64Y-116.0
X94.64Y-133.78
X97.18Y-116.0
X97.18Y-133.78
X99.72Y-116.0
X99.72Y-133.78
X102.26Y-116.0
X102.26Y-133.78
X104.8Y-116.0
X104.8Y-133.78
X107.34Y-116.0
X107.34Y-133.78
X109.88Y-116.0
X109.88Y-133.78
X112.42Y-116.0
X112.42Y-133.78
X114.96Y-116.0
X114.96Y-133.78
X117.5Y-116.0
X117.5Y-133.78
X120.04Y-116.0
X120.04Y-133.78
X122.58Y-116.0
X122.58Y-133.78
T0
M30
