%TF.GenerationSoftware,KiCad,Pcbnew,7.0.8*%
%TF.CreationDate,2023-12-14T11:27:17-05:00*%
%TF.ProjectId,led_test,6c65645f-7465-4737-942e-6b696361645f,rev?*%
%TF.SameCoordinates,Original*%
%TF.FileFunction,Copper,L1,Top*%
%TF.FilePolarity,Positive*%
%FSLAX46Y46*%
G04 Gerber Fmt 4.6, Leading zero omitted, Abs format (unit mm)*
G04 Created by KiCad (PCBNEW 7.0.8) date 2023-12-14 11:27:17*
%MOMM*%
%LPD*%
G01*
G04 APERTURE LIST*
G04 Aperture macros list*
%AMRotRect*
0 Rectangle, with rotation*
0 The origin of the aperture is its center*
0 $1 length*
0 $2 width*
0 $3 Rotation angle, in degrees counterclockwise*
0 Add horizontal line*
21,1,$1,$2,0,0,$3*%
G04 Aperture macros list end*
%TA.AperFunction,SMDPad,CuDef*%
%ADD10R,1.500000X1.000000*%
%TD*%
%TA.AperFunction,SMDPad,CuDef*%
%ADD11RotRect,1.000000X1.500000X225.000000*%
%TD*%
%TA.AperFunction,SMDPad,CuDef*%
%ADD12RotRect,1.000000X1.500000X247.500000*%
%TD*%
%TA.AperFunction,SMDPad,CuDef*%
%ADD13R,1.600000X3.810000*%
%TD*%
%TA.AperFunction,ComponentPad*%
%ADD14C,1.600000*%
%TD*%
%TA.AperFunction,Conductor*%
%ADD15C,0.800000*%
%TD*%
G04 APERTURE END LIST*
D10*
%TO.P,D1,3,VDD*%
%TO.N,PWR_3V3*%
X69587500Y-100400000D03*
%TO.P,D1,2,DIN*%
%TO.N,LED DIN*%
X74487500Y-100400000D03*
%TO.P,D1,4,DOUT*%
%TO.N,Net-(D1-DOUT)*%
X69587500Y-103600000D03*
%TO.P,D1,1,VSS*%
%TO.N,PWR_GND*%
X74487500Y-103600000D03*
%TD*%
D11*
%TO.P,D3,3,VDD*%
%TO.N,PWR_3V3*%
X50223255Y-90349421D03*
%TO.P,D3,2,DIN*%
%TO.N,Net-(D2-DOUT)*%
X53688078Y-93814244D03*
%TO.P,D3,4,DOUT*%
%TO.N,Net-(D3-DOUT)*%
X47960514Y-92612162D03*
%TO.P,D3,1,VSS*%
%TO.N,PWR_GND*%
X51425337Y-96076985D03*
%TD*%
D12*
%TO.P,D2,3,VDD*%
%TO.N,PWR_3V3*%
X58905786Y-97300603D03*
%TO.P,D2,2,DIN*%
%TO.N,Net-(D1-DOUT)*%
X63432795Y-99175752D03*
%TO.P,D2,4,DOUT*%
%TO.N,Net-(D2-DOUT)*%
X57681199Y-100257018D03*
%TO.P,D2,1,VSS*%
%TO.N,PWR_GND*%
X62208208Y-102132167D03*
%TD*%
D13*
%TO.P,M1,40,VBUS*%
%TO.N,unconnected-(M1-VBUS-Pad40)*%
X122580000Y-135685000D03*
D14*
X122580000Y-133780000D03*
D13*
%TO.P,M1,39,VSYS*%
%TO.N,VSYS*%
X120040000Y-135685000D03*
D14*
X120040000Y-133780000D03*
D13*
%TO.P,M1,38,GND*%
%TO.N,PWR_GND*%
X117500000Y-135685000D03*
D14*
X117500000Y-133780000D03*
D13*
%TO.P,M1,37,3V3_EN*%
%TO.N,unconnected-(M1-3V3_EN-Pad37)*%
X114960000Y-135685000D03*
D14*
X114960000Y-133780000D03*
D13*
%TO.P,M1,36,3V3_OUT*%
%TO.N,PWR_3V3*%
X112420000Y-135685000D03*
D14*
X112420000Y-133780000D03*
D13*
%TO.P,M1,35,ADC_VREF*%
%TO.N,unconnected-(M1-ADC_VREF-Pad35)*%
X109880000Y-135685000D03*
D14*
X109880000Y-133780000D03*
D13*
%TO.P,M1,34,GP28*%
%TO.N,IN*%
X107340000Y-135685000D03*
D14*
X107340000Y-133780000D03*
D13*
%TO.P,M1,33,GND*%
%TO.N,PWR_GND*%
X104800000Y-135685000D03*
D14*
X104800000Y-133780000D03*
D13*
%TO.P,M1,32,GP27*%
%TO.N,ENC1_A*%
X102260000Y-135685000D03*
D14*
X102260000Y-133780000D03*
D13*
%TO.P,M1,31,GP26*%
%TO.N,ENC1_B*%
X99747864Y-135676443D03*
D14*
X99720000Y-133780000D03*
D13*
%TO.P,M1,30,RUN*%
%TO.N,unconnected-(M1-RUN-Pad30)*%
X97180000Y-135685000D03*
D14*
X97180000Y-133780000D03*
D13*
%TO.P,M1,29,GP22*%
%TO.N,unconnected-(M1-GP22-Pad29)*%
X94640000Y-135685000D03*
D14*
X94640000Y-133780000D03*
D13*
%TO.P,M1,28,GND*%
%TO.N,PWR_GND*%
X92100000Y-135685000D03*
D14*
X92100000Y-133780000D03*
D13*
%TO.P,M1,27,GP21*%
%TO.N,BTN_IN*%
X89560000Y-135685000D03*
D14*
X89560000Y-133780000D03*
D13*
%TO.P,M1,26,GP20*%
%TO.N,unconnected-(M1-GP20-Pad26)*%
X87020000Y-135685000D03*
D14*
X87020000Y-133780000D03*
D13*
%TO.P,M1,25,GP19*%
%TO.N,unconnected-(M1-GP19-Pad25)*%
X84480000Y-135685000D03*
D14*
X84480000Y-133780000D03*
D13*
%TO.P,M1,24,GP18*%
%TO.N,BTN_PLAY*%
X81940000Y-135685000D03*
D14*
X81940000Y-133780000D03*
D13*
%TO.P,M1,23,GND*%
%TO.N,PWR_GND*%
X79400000Y-135685000D03*
D14*
X79400000Y-133780000D03*
D13*
%TO.P,M1,22,GP17*%
%TO.N,ENC2_B*%
X76860000Y-135685000D03*
D14*
X76860000Y-133780000D03*
D13*
%TO.P,M1,21,GP16*%
%TO.N,ENC2_A*%
X74320000Y-135685000D03*
D14*
X74320000Y-133780000D03*
%TO.P,M1,20,GP15*%
%TO.N,LED DIN*%
X74320000Y-116000000D03*
D13*
X74320000Y-114095000D03*
D14*
%TO.P,M1,19,GP14*%
%TO.N,OUT_MIDI*%
X76860000Y-116000000D03*
D13*
X76860000Y-114095000D03*
D14*
%TO.P,M1,18,GND*%
%TO.N,PWR_GND*%
X79400000Y-116000000D03*
D13*
X79400000Y-114095000D03*
D14*
%TO.P,M1,17,GP13*%
%TO.N,OUT_C1*%
X81940000Y-116000000D03*
D13*
X81940000Y-114095000D03*
D14*
%TO.P,M1,16,GP12*%
%TO.N,OUT_C2*%
X84480000Y-116000000D03*
D13*
X84480000Y-114095000D03*
D14*
%TO.P,M1,15,GP11*%
%TO.N,OUT_C3*%
X87020000Y-116000000D03*
D13*
X87020000Y-114095000D03*
D14*
%TO.P,M1,14,GP10*%
%TO.N,OUT_C4*%
X89560000Y-116000000D03*
D13*
X89560000Y-114095000D03*
D14*
%TO.P,M1,13,GND*%
%TO.N,PWR_GND*%
X92100000Y-116000000D03*
D13*
X92100000Y-114095000D03*
D14*
%TO.P,M1,12,GP9*%
%TO.N,OUT_C5*%
X94640000Y-116000000D03*
D13*
X94640000Y-114095000D03*
D14*
%TO.P,M1,11,GP8*%
%TO.N,OUT_C6*%
X97180000Y-116000000D03*
D13*
X97180000Y-114095000D03*
D14*
%TO.P,M1,10,GP7*%
%TO.N,IN_SWTCH*%
X99720000Y-116000000D03*
D13*
X99720000Y-114095000D03*
D14*
%TO.P,M1,9,GP6*%
%TO.N,ENC2_BTN*%
X102260000Y-116000000D03*
D13*
X102269556Y-114095000D03*
D14*
%TO.P,M1,8,GND*%
%TO.N,PWR_GND*%
X104800000Y-116000000D03*
D13*
X104800000Y-114095000D03*
D14*
%TO.P,M1,7,GP5*%
%TO.N,BTN_C1*%
X107340000Y-116000000D03*
D13*
X107340000Y-114095000D03*
D14*
%TO.P,M1,6,GP4*%
%TO.N,BTN_C2*%
X109880000Y-116000000D03*
D13*
X109880000Y-114095000D03*
D14*
%TO.P,M1,5,GP3*%
%TO.N,BTN_C3*%
X112420000Y-116000000D03*
D13*
X112420000Y-114095000D03*
D14*
%TO.P,M1,4,GP2*%
%TO.N,BTN_C4*%
X114960000Y-116000000D03*
D13*
X114960000Y-114095000D03*
D14*
%TO.P,M1,3,GND*%
%TO.N,PWR_GND*%
X117500000Y-116000000D03*
D13*
X117500000Y-114095000D03*
D14*
%TO.P,M1,2,GP1*%
%TO.N,BTN_C5*%
X120040000Y-116000000D03*
D13*
X120040000Y-114095000D03*
D14*
%TO.P,M1,1,GP0*%
%TO.N,BTN_C6*%
X122580000Y-116000000D03*
D13*
X122580000Y-114095000D03*
%TD*%
D15*
%TO.N,PWR_3V3*%
X58905786Y-97300603D02*
X58905786Y-94705786D01*
X58905786Y-94705786D02*
X54549421Y-90349421D01*
X54549421Y-90349421D02*
X50223255Y-90349421D01*
%TO.N,PWR_GND*%
X63988020Y-103911980D02*
X63176040Y-103100000D01*
X56200000Y-103100000D02*
X54200000Y-101100000D01*
X63176040Y-103100000D02*
X56200000Y-103100000D01*
X54200000Y-101100000D02*
X54200000Y-98851648D01*
X54200000Y-98851648D02*
X51425337Y-96076985D01*
%TO.N,PWR_3V3*%
X69587500Y-100400000D02*
X66900000Y-100400000D01*
X63800603Y-97300603D02*
X58905786Y-97300603D01*
X66900000Y-100400000D02*
X63800603Y-97300603D01*
%TO.N,PWR_GND*%
X63988020Y-103911980D02*
X65238020Y-105161980D01*
X62208208Y-102132167D02*
X63988020Y-103911980D01*
X65238020Y-105161980D02*
X69800000Y-109723959D01*
X69800000Y-109723959D02*
X69800000Y-126800000D01*
X69800000Y-126800000D02*
X74400000Y-131400000D01*
X74400000Y-131400000D02*
X78200000Y-131400000D01*
X78200000Y-131400000D02*
X79400000Y-132600000D01*
X79400000Y-132600000D02*
X79400000Y-133780000D01*
%TO.N,PWR_3V3*%
X112420000Y-135685000D02*
X112420000Y-132420000D01*
X112420000Y-132420000D02*
X109800000Y-129800000D01*
X109800000Y-129800000D02*
X75400000Y-129800000D01*
X71493600Y-125893600D02*
X71493600Y-102306100D01*
X75400000Y-129800000D02*
X71493600Y-125893600D01*
X71493600Y-102306100D02*
X69587500Y-100400000D01*
%TO.N,LED DIN*%
X72700000Y-114380000D02*
X72700000Y-102187500D01*
X72700000Y-102187500D02*
X74487500Y-100400000D01*
X74320000Y-116000000D02*
X72700000Y-114380000D01*
%TO.N,PWR_GND*%
X79400000Y-116000000D02*
X79400000Y-110700000D01*
X79400000Y-110700000D02*
X74487500Y-105787500D01*
X74487500Y-105787500D02*
X74487500Y-103600000D01*
%TO.N,Net-(D2-DOUT)*%
X55824181Y-98400000D02*
X55800000Y-98400000D01*
X57681199Y-100257018D02*
X55824181Y-98400000D01*
X55800000Y-98400000D02*
X55800000Y-95926166D01*
X55800000Y-95926166D02*
X53688078Y-93814244D01*
%TO.N,Net-(D1-DOUT)*%
X69587500Y-103600000D02*
X67857043Y-103600000D01*
X67857043Y-103600000D02*
X63432795Y-99175752D01*
%TD*%
M02*
