%TF.GenerationSoftware,KiCad,Pcbnew,7.0.8*%
%TF.CreationDate,2023-12-14T11:27:17-05:00*%
%TF.ProjectId,led_test,6c65645f-7465-4737-942e-6b696361645f,rev?*%
%TF.SameCoordinates,Original*%
%TF.FileFunction,Copper,L2,Bot*%
%TF.FilePolarity,Positive*%
%FSLAX46Y46*%
G04 Gerber Fmt 4.6, Leading zero omitted, Abs format (unit mm)*
G04 Created by KiCad (PCBNEW 7.0.8) date 2023-12-14 11:27:17*
%MOMM*%
%LPD*%
G01*
G04 APERTURE LIST*
%TA.AperFunction,ComponentPad*%
%ADD10C,1.600000*%
%TD*%
G04 APERTURE END LIST*
D10*
%TO.P,M1,40,VBUS*%
%TO.N,unconnected-(M1-VBUS-Pad40)*%
X122580000Y-133780000D03*
%TO.P,M1,39,VSYS*%
%TO.N,VSYS*%
X120040000Y-133780000D03*
%TO.P,M1,38,GND*%
%TO.N,PWR_GND*%
X117500000Y-133780000D03*
%TO.P,M1,37,3V3_EN*%
%TO.N,unconnected-(M1-3V3_EN-Pad37)*%
X114960000Y-133780000D03*
%TO.P,M1,36,3V3_OUT*%
%TO.N,PWR_3V3*%
X112420000Y-133780000D03*
%TO.P,M1,35,ADC_VREF*%
%TO.N,unconnected-(M1-ADC_VREF-Pad35)*%
X109880000Y-133780000D03*
%TO.P,M1,34,GP28*%
%TO.N,IN*%
X107340000Y-133780000D03*
%TO.P,M1,33,GND*%
%TO.N,PWR_GND*%
X104800000Y-133780000D03*
%TO.P,M1,32,GP27*%
%TO.N,ENC1_A*%
X102260000Y-133780000D03*
%TO.P,M1,31,GP26*%
%TO.N,ENC1_B*%
X99720000Y-133780000D03*
%TO.P,M1,30,RUN*%
%TO.N,unconnected-(M1-RUN-Pad30)*%
X97180000Y-133780000D03*
%TO.P,M1,29,GP22*%
%TO.N,unconnected-(M1-GP22-Pad29)*%
X94640000Y-133780000D03*
%TO.P,M1,28,GND*%
%TO.N,PWR_GND*%
X92100000Y-133780000D03*
%TO.P,M1,27,GP21*%
%TO.N,BTN_IN*%
X89560000Y-133780000D03*
%TO.P,M1,26,GP20*%
%TO.N,unconnected-(M1-GP20-Pad26)*%
X87020000Y-133780000D03*
%TO.P,M1,25,GP19*%
%TO.N,unconnected-(M1-GP19-Pad25)*%
X84480000Y-133780000D03*
%TO.P,M1,24,GP18*%
%TO.N,BTN_PLAY*%
X81940000Y-133780000D03*
%TO.P,M1,23,GND*%
%TO.N,PWR_GND*%
X79400000Y-133780000D03*
%TO.P,M1,22,GP17*%
%TO.N,ENC2_B*%
X76860000Y-133780000D03*
%TO.P,M1,21,GP16*%
%TO.N,ENC2_A*%
X74320000Y-133780000D03*
%TO.P,M1,20,GP15*%
%TO.N,LED DIN*%
X74320000Y-116000000D03*
%TO.P,M1,19,GP14*%
%TO.N,OUT_MIDI*%
X76860000Y-116000000D03*
%TO.P,M1,18,GND*%
%TO.N,PWR_GND*%
X79400000Y-116000000D03*
%TO.P,M1,17,GP13*%
%TO.N,OUT_C1*%
X81940000Y-116000000D03*
%TO.P,M1,16,GP12*%
%TO.N,OUT_C2*%
X84480000Y-116000000D03*
%TO.P,M1,15,GP11*%
%TO.N,OUT_C3*%
X87020000Y-116000000D03*
%TO.P,M1,14,GP10*%
%TO.N,OUT_C4*%
X89560000Y-116000000D03*
%TO.P,M1,13,GND*%
%TO.N,PWR_GND*%
X92100000Y-116000000D03*
%TO.P,M1,12,GP9*%
%TO.N,OUT_C5*%
X94640000Y-116000000D03*
%TO.P,M1,11,GP8*%
%TO.N,OUT_C6*%
X97180000Y-116000000D03*
%TO.P,M1,10,GP7*%
%TO.N,IN_SWTCH*%
X99720000Y-116000000D03*
%TO.P,M1,9,GP6*%
%TO.N,ENC2_BTN*%
X102260000Y-116000000D03*
%TO.P,M1,8,GND*%
%TO.N,PWR_GND*%
X104800000Y-116000000D03*
%TO.P,M1,7,GP5*%
%TO.N,BTN_C1*%
X107340000Y-116000000D03*
%TO.P,M1,6,GP4*%
%TO.N,BTN_C2*%
X109880000Y-116000000D03*
%TO.P,M1,5,GP3*%
%TO.N,BTN_C3*%
X112420000Y-116000000D03*
%TO.P,M1,4,GP2*%
%TO.N,BTN_C4*%
X114960000Y-116000000D03*
%TO.P,M1,3,GND*%
%TO.N,PWR_GND*%
X117500000Y-116000000D03*
%TO.P,M1,2,GP1*%
%TO.N,BTN_C5*%
X120040000Y-116000000D03*
%TO.P,M1,1,GP0*%
%TO.N,BTN_C6*%
X122580000Y-116000000D03*
%TD*%
M02*
