<?xml version="1.0" encoding="utf-8"?>
<!-- Generator: Adobe Illustrator 28.0.0, SVG Export Plug-In . SVG Version: 6.00 Build 0)  -->
<svg version="1.1" id="previewSVG" xmlns="http://www.w3.org/2000/svg" xmlns:xlink="http://www.w3.org/1999/xlink" x="0px" y="0px"
	 viewBox="0 0 360.1 576.1" style="enable-background:new 0 0 360.1 576.1;" xml:space="preserve">
<style type="text/css">
	.st0{fill-rule:evenodd;clip-rule:evenodd;fill:#FFFFFF;}
	.st1{fill:none;stroke:#FF0000;stroke-width:0.1417;stroke-linecap:round;stroke-linejoin:round;stroke-miterlimit:10;}
</style>
<rect x="0" y="0" class="st0" width="360.1" height="576.1"/>
<g transform="translate(0, -203200) scale(1, -1)">
	<path class="st1" d="M0.1-203205.5v-565.2c0-3,2.4-5.4,5.4-5.4l0,0h349.2c3,0,5.4,2.4,5.4,5.4l0,0v565.2c0,3-2.4,5.4-5.4,5.4H5.5
		C2.5-203200.1,0.1-203202.5,0.1-203205.5 M14.8-203762.4h14.4c2.4,0,4.3-1.9,4.3-4.3c0-2.4-1.9-4.3-4.3-4.3H14.8
		c-2.4,0-4.3,1.9-4.3,4.3C10.5-203764.3,12.4-203762.4,14.8-203762.4L14.8-203762.4 M331.3-203204.8c-2.4,0-4.3-1.9-4.3-4.3
		c0-2.4,1.9-4.3,4.3-4.3h14.4c2.4,0,4.3,1.9,4.3,4.3c0,2.4-1.9,4.3-4.3,4.3H331.3 M14.8-203204.8c-2.4,0-4.3-1.9-4.3-4.3
		c0-2.4,1.9-4.3,4.3-4.3l0,0h14.4c2.4,0,4.3,1.9,4.3,4.3c0,2.4-1.9,4.3-4.3,4.3H14.8 M345.7-203771.4c2.4,0,4.3,1.9,4.3,4.3
		c0,2.4-1.9,4.3-4.3,4.3h-14.4c-2.4,0-4.3-1.9-4.3-4.3c0-2.4,1.9-4.3,4.3-4.3H345.7 M340.3-203268.9c0,5.8-4.7,10.5-10.5,10.5
		c-5.8,0-10.5-4.7-10.5-10.5c0-5.8,4.7-10.5,10.5-10.5C335.6-203279.4,340.3-203274.7,340.3-203268.9 M128.4-203268.9
		c0,5.8-4.7,10.5-10.5,10.5s-10.5-4.7-10.5-10.5c0-5.8,4.7-10.5,10.5-10.5S128.4-203274.7,128.4-203268.9 M126.6-203323.4h48.6
		v-48.6h-48.6V-203323.4 M69.4-203323.4H118v-48.6H69.4V-203323.4 M210.6-203268.9c0,5.8-4.7,10.5-10.5,10.5s-10.5-4.7-10.5-10.5
		c0-5.8,4.7-10.5,10.5-10.5S210.6-203274.7,210.6-203268.9 M169.5-203268.9c0,5.8-4.7,10.5-10.5,10.5s-10.5-4.7-10.5-10.5
		c0-5.8,4.7-10.5,10.5-10.5S169.5-203274.7,169.5-203268.9 M341.8-203433c0,5-4,9-9,9s-9-4-9-9c0-5,4-9,9-9
		S341.8-203438,341.8-203433 M241.2-203323.4h48.6v-48.6h-48.6V-203323.4 M87.3-203268.9c0,5.8-4.7,10.5-10.5,10.5
		s-10.5-4.7-10.5-10.5c0-5.8,4.7-10.5,10.5-10.5S87.3-203274.7,87.3-203268.9 M39.8-203268.9c0,5.8-4.7,10.5-10.5,10.5
		s-10.5-4.7-10.5-10.5c0-5.8,4.7-10.5,10.5-10.5S39.8-203274.7,39.8-203268.9 M292.8-203268.9c0,5.8-4.7,10.5-10.5,10.5
		c-5.8,0-10.5-4.7-10.5-10.5c0-5.8,4.7-10.5,10.5-10.5C288.1-203279.4,292.8-203274.7,292.8-203268.9 M183.9-203323.4h48.6v-48.6
		h-48.6V-203323.4 M251.7-203268.9c0,5.8-4.7,10.5-10.5,10.5s-10.5-4.7-10.5-10.5c0-5.8,4.7-10.5,10.5-10.5
		S251.7-203274.7,251.7-203268.9 M64-203720.6c0,4.7-3.8,8.5-8.5,8.5s-8.5-3.8-8.5-8.5c0-4.7,3.8-8.5,8.5-8.5
		S64-203725.3,64-203720.6 M188.6-203529.6c0,4.7-3.8,8.5-8.5,8.5s-8.5-3.8-8.5-8.5c0-4.7,3.8-8.5,8.5-8.5
		S188.6-203534.3,188.6-203529.6 M116.3-203696.3h48.6v-48.6h-48.6V-203696.3 M12.1-203323.4h48.6v-48.6H12.1V-203323.4
		 M298.4-203323.4H347v-48.6h-48.6V-203323.4"/>
</g>
</svg>
