%TF.GenerationSoftware,KiCad,Pcbnew,7.0.8*%
%TF.CreationDate,2023-12-14T21:29:37-05:00*%
%TF.ProjectId,front panel,66726f6e-7420-4706-916e-656c2e6b6963,rev?*%
%TF.SameCoordinates,Original*%
%TF.FileFunction,Profile,NP*%
%FSLAX46Y46*%
G04 Gerber Fmt 4.6, Leading zero omitted, Abs format (unit mm)*
G04 Created by KiCad (PCBNEW 7.0.8) date 2023-12-14 21:29:37*
%MOMM*%
%LPD*%
G01*
G04 APERTURE LIST*
%TA.AperFunction,Profile*%
%ADD10C,0.050000*%
%TD*%
G04 APERTURE END LIST*
D10*
X0Y-1905000D02*
X0Y-201295000D01*
X125095000Y-203200000D02*
G75*
G03*
X127000000Y-201295000I0J1905000D01*
G01*
X5207000Y-198374000D02*
X10287000Y-198374000D01*
X116840000Y-1651000D02*
G75*
G03*
X116840000Y-4699000I-100J-1524000D01*
G01*
X1905000Y0D02*
X125095000Y0D01*
X5207000Y-1651000D02*
G75*
G03*
X5207000Y-4699000I4J-1524000D01*
G01*
X121920000Y-201549000D02*
G75*
G03*
X121920000Y-198501000I-100J1524000D01*
G01*
X1905000Y0D02*
G75*
G03*
X0Y-1905000I1J-1905001D01*
G01*
X1905000Y-203200000D02*
X125095000Y-203200000D01*
X127000000Y-1905000D02*
G75*
G03*
X125095000Y0I-1905000J0D01*
G01*
X116840000Y-1651000D02*
X121920000Y-1651000D01*
X116840000Y-198501000D02*
X121920000Y-198501000D01*
X5207000Y-198374000D02*
G75*
G03*
X5207000Y-201422000I4J-1524000D01*
G01*
X116840000Y-4699000D02*
X121920000Y-4699000D01*
X10287000Y-4699000D02*
G75*
G03*
X10287000Y-1651000I0J1524000D01*
G01*
X127000000Y-1905000D02*
X127000000Y-201295000D01*
X10287000Y-201422000D02*
G75*
G03*
X10287000Y-198374000I0J1524000D01*
G01*
X5207000Y-4699000D02*
X10287000Y-4699000D01*
X5207000Y-201422000D02*
X10287000Y-201422000D01*
X116840000Y-198501000D02*
G75*
G03*
X116840000Y-201549000I-100J-1524000D01*
G01*
X121920000Y-4699000D02*
G75*
G03*
X121920000Y-1651000I-100J1524000D01*
G01*
X5207000Y-1651000D02*
X10287000Y-1651000D01*
X0Y-201295000D02*
G75*
G03*
X1905000Y-203200000I1905000J0D01*
G01*
X116840000Y-201549000D02*
X121920000Y-201549000D01*
%TO.C,J1*%
X120010000Y-24280000D02*
G75*
G03*
X120010000Y-24280000I-3700000J0D01*
G01*
%TO.C,J4*%
X45270000Y-24280000D02*
G75*
G03*
X45270000Y-24280000I-3700000J0D01*
G01*
%TO.C,SW5*%
X44647500Y-43497500D02*
X61792500Y-43497500D01*
X61792500Y-43497500D02*
X61792500Y-60642500D01*
X61792500Y-60642500D02*
X44647500Y-60642500D01*
X44647500Y-60642500D02*
X44647500Y-43497500D01*
%TO.C,SW4*%
X24447500Y-43497500D02*
X41592500Y-43497500D01*
X41592500Y-43497500D02*
X41592500Y-60642500D01*
X41592500Y-60642500D02*
X24447500Y-60642500D01*
X24447500Y-60642500D02*
X24447500Y-43497500D01*
%TO.C,J6*%
X74270000Y-24280000D02*
G75*
G03*
X74270000Y-24280000I-3700000J0D01*
G01*
%TO.C,J5*%
X59770000Y-24280000D02*
G75*
G03*
X59770000Y-24280000I-3700000J0D01*
G01*
%TO.C,S1*%
X120560000Y-82170000D02*
G75*
G03*
X120560000Y-82170000I-3180000J0D01*
G01*
%TO.C,SW7*%
X85047500Y-43497500D02*
X102192500Y-43497500D01*
X102192500Y-43497500D02*
X102192500Y-60642500D01*
X102192500Y-60642500D02*
X85047500Y-60642500D01*
X85047500Y-60642500D02*
X85047500Y-43497500D01*
%TO.C,J3*%
X30770000Y-24280000D02*
G75*
G03*
X30770000Y-24280000I-3700000J0D01*
G01*
%TO.C,J2*%
X14030000Y-24280000D02*
G75*
G03*
X14030000Y-24280000I-3700000J0D01*
G01*
%TO.C,J8*%
X103270000Y-24280000D02*
G75*
G03*
X103270000Y-24280000I-3700000J0D01*
G01*
%TO.C,SW6*%
X64847500Y-43497500D02*
X81992500Y-43497500D01*
X81992500Y-43497500D02*
X81992500Y-60642500D01*
X81992500Y-60642500D02*
X64847500Y-60642500D01*
X64847500Y-60642500D02*
X64847500Y-43497500D01*
%TO.C,J7*%
X88770000Y-24280000D02*
G75*
G03*
X88770000Y-24280000I-3700000J0D01*
G01*
%TO.C,MT1*%
X22566000Y-183634000D02*
G75*
G03*
X22566000Y-183634000I-3000000J0D01*
G01*
%TO.C,MT2*%
X66500000Y-116245000D02*
G75*
G03*
X66500000Y-116245000I-3000000J0D01*
G01*
%TO.C,SW1*%
X40993500Y-175061500D02*
X58138500Y-175061500D01*
X58138500Y-175061500D02*
X58138500Y-192206500D01*
X58138500Y-192206500D02*
X40993500Y-192206500D01*
X40993500Y-192206500D02*
X40993500Y-175061500D01*
%TO.C,SW3*%
X4247500Y-43497500D02*
X21392500Y-43497500D01*
X21392500Y-43497500D02*
X21392500Y-60642500D01*
X21392500Y-60642500D02*
X4247500Y-60642500D01*
X4247500Y-60642500D02*
X4247500Y-43497500D01*
%TO.C,SW8*%
X105247500Y-43497500D02*
X122392500Y-43497500D01*
X122392500Y-43497500D02*
X122392500Y-60642500D01*
X122392500Y-60642500D02*
X105247500Y-60642500D01*
X105247500Y-60642500D02*
X105247500Y-43497500D01*
%TD*%
M02*
